<mxfile host="65bd71144e">
    <diagram name="06-pcdc-seq" id="2mNiYjSB96_8ls-yiAys">
        <mxGraphModel dx="1066" dy="2226" grid="1" gridSize="10" guides="1" tooltips="1" connect="1" arrows="1" fold="1" page="1" pageScale="1" pageWidth="827" pageHeight="583" background="none" math="0" shadow="0">
            <root>
                <mxCell id="WWikm3p9Dk6OQMaylpYj-0"/>
                <mxCell id="WWikm3p9Dk6OQMaylpYj-1" style="" parent="WWikm3p9Dk6OQMaylpYj-0"/>
                <mxCell id="0" value="&lt;span style=&quot;font-size: 20px; font-weight: 700;&quot;&gt;Publish Customer Details Change&lt;/span&gt;" style="rounded=1;whiteSpace=wrap;html=1;fillColor=#FFFFFF;verticalAlign=top;arcSize=10;strokeColor=none;strokeWidth=0;labelBackgroundColor=none;fontColor=#18141D;" vertex="1" parent="WWikm3p9Dk6OQMaylpYj-1">
                    <mxGeometry x="40" y="-1080" width="620" height="260" as="geometry"/>
                </mxCell>
                <UserObject label="" mermaidData="{&#10;  &quot;data&quot;: &quot;%%{init: {'theme': 'forest', 'themeVariables': { 'primaryColor': '#ffcccc', 'edgeLabelBackground':'#ffffee', 'tertiaryColor': '#fff0f0'}}}%%\nsequenceDiagram\nautonumber\n        participant MGV_MS as Member Service\n        participant MGV_ESB as myGov ESB\n        participant MGV as myGov \n        MGV_MS -&gt;&gt; MGV_ESB : publishCustomerDetailsChange\n        MGV_ESB -&gt;&gt; MGV : publishCustomerDetailsChange&quot;,&#10;  &quot;config&quot;: {&#10;    &quot;startOnLoad&quot;: false,&#10;    &quot;themeCSS&quot;: &quot;&quot;,&#10;    &quot;theme&quot;: &quot;neutral&quot;,&#10;    &quot;arrowMarkerAbsolute&quot;: false,&#10;    &quot;flowchart&quot;: {&#10;      &quot;diagramPadding&quot;: 8,&#10;      &quot;htmlLabels&quot;: false,&#10;      &quot;nodeSpacing&quot;: 50,&#10;      &quot;rankSpacing&quot;: 50,&#10;      &quot;curve&quot;: &quot;linear&quot;,&#10;      &quot;padding&quot;: 15,&#10;      &quot;useMaxWidth&quot;: true&#10;    },&#10;    &quot;sequence&quot;: {&#10;      &quot;activationWidth&quot;: 10,&#10;      &quot;diagramMarginX&quot;: 50,&#10;      &quot;diagramMarginY&quot;: 10,&#10;      &quot;actorMargin&quot;: 50,&#10;      &quot;width&quot;: 150,&#10;      &quot;height&quot;: 65,&#10;      &quot;boxMargin&quot;: 10,&#10;      &quot;boxTextMargin&quot;: 5,&#10;      &quot;noteMargin&quot;: 10,&#10;      &quot;messageMargin&quot;: 35,&#10;      &quot;messageAlign&quot;: &quot;center&quot;,&#10;      &quot;mirrorActors&quot;: true,&#10;      &quot;bottomMarginAdj&quot;: 1,&#10;      &quot;useMaxWidth&quot;: true,&#10;      &quot;rightAngles&quot;: false,&#10;      &quot;showSequenceNumbers&quot;: false,&#10;      &quot;actorFontSize&quot;: 14,&#10;      &quot;actorFontFamily&quot;: &quot;\&quot;Open-Sans\&quot;, \&quot;sans-serif\&quot;&quot;,&#10;      &quot;actorFontWeight&quot;: 400,&#10;      &quot;noteFontSize&quot;: 14,&#10;      &quot;noteFontFamily&quot;: &quot;\&quot;trebuchet ms\&quot;, verdana, arial&quot;,&#10;      &quot;noteFontWeight&quot;: 400,&#10;      &quot;noteAlign&quot;: &quot;center&quot;,&#10;      &quot;messageFontSize&quot;: 16,&#10;      &quot;messageFontFamily&quot;: &quot;\&quot;trebuchet ms\&quot;, verdana, arial&quot;,&#10;      &quot;messageFontWeight&quot;: 400,&#10;      &quot;wrap&quot;: false,&#10;      &quot;wrapPadding&quot;: 10,&#10;      &quot;labelBoxWidth&quot;: 50,&#10;      &quot;labelBoxHeight&quot;: 20&#10;    },&#10;    &quot;gantt&quot;: {&#10;      &quot;titleTopMargin&quot;: 25,&#10;      &quot;barHeight&quot;: 20,&#10;      &quot;barGap&quot;: 4,&#10;      &quot;topPadding&quot;: 50,&#10;      &quot;leftPadding&quot;: 75,&#10;      &quot;gridLineStartPadding&quot;: 35,&#10;      &quot;fontSize&quot;: 11,&#10;      &quot;fontFamily&quot;: &quot;\&quot;Open-Sans\&quot;, \&quot;sans-serif\&quot;&quot;,&#10;      &quot;numberSectionStyles&quot;: 4,&#10;      &quot;axisFormat&quot;: &quot;%Y-%m-%d&quot;,&#10;      &quot;useMaxWidth&quot;: true&#10;    },&#10;    &quot;journey&quot;: {&#10;      &quot;diagramMarginX&quot;: 50,&#10;      &quot;diagramMarginY&quot;: 10,&#10;      &quot;actorMargin&quot;: 50,&#10;      &quot;width&quot;: 150,&#10;      &quot;height&quot;: 65,&#10;      &quot;boxMargin&quot;: 10,&#10;      &quot;boxTextMargin&quot;: 5,&#10;      &quot;noteMargin&quot;: 10,&#10;      &quot;messageMargin&quot;: 35,&#10;      &quot;messageAlign&quot;: &quot;center&quot;,&#10;      &quot;bottomMarginAdj&quot;: 1,&#10;      &quot;useMaxWidth&quot;: true,&#10;      &quot;rightAngles&quot;: false&#10;    },&#10;    &quot;class&quot;: {&#10;      &quot;arrowMarkerAbsolute&quot;: false,&#10;      &quot;useMaxWidth&quot;: true&#10;    },&#10;    &quot;git&quot;: {&#10;      &quot;arrowMarkerAbsolute&quot;: false,&#10;      &quot;useMaxWidth&quot;: true&#10;    },&#10;    &quot;state&quot;: {&#10;      &quot;dividerMargin&quot;: 10,&#10;      &quot;sizeUnit&quot;: 5,&#10;      &quot;padding&quot;: 8,&#10;      &quot;textHeight&quot;: 10,&#10;      &quot;titleShift&quot;: -15,&#10;      &quot;noteMargin&quot;: 10,&#10;      &quot;forkWidth&quot;: 70,&#10;      &quot;forkHeight&quot;: 7,&#10;      &quot;miniPadding&quot;: 2,&#10;      &quot;fontSizeFactor&quot;: 5.02,&#10;      &quot;fontSize&quot;: 24,&#10;      &quot;labelHeight&quot;: 16,&#10;      &quot;edgeLengthFactor&quot;: &quot;20&quot;,&#10;      &quot;compositTitleSize&quot;: 35,&#10;      &quot;radius&quot;: 5&#10;    },&#10;    &quot;er&quot;: {&#10;      &quot;diagramPadding&quot;: 20,&#10;      &quot;layoutDirection&quot;: &quot;TB&quot;,&#10;      &quot;minEntityWidth&quot;: 100,&#10;      &quot;minEntityHeight&quot;: 75,&#10;      &quot;entityPadding&quot;: 15,&#10;      &quot;stroke&quot;: &quot;grey&quot;,&#10;      &quot;fill&quot;: &quot;honeydew&quot;,&#10;      &quot;fontSize&quot;: 12,&#10;      &quot;useMaxWidth&quot;: true&#10;    },&#10;    &quot;pie&quot;: {&#10;      &quot;useMaxWidth&quot;: true&#10;    },&#10;    &quot;securityLevel&quot;: &quot;strict&quot;,&#10;    &quot;themeVariables&quot;: {&#10;      &quot;primaryColor&quot;: &quot;#eee&quot;,&#10;      &quot;contrast&quot;: &quot;#707070&quot;,&#10;      &quot;secondaryColor&quot;: &quot;hsl(0, 0%, 98.9215686275%)&quot;,&#10;      &quot;background&quot;: &quot;#ffffff&quot;,&#10;      &quot;tertiaryColor&quot;: &quot;hsl(-160, 0%, 93.3333333333%)&quot;,&#10;      &quot;primaryBorderColor&quot;: &quot;hsl(0, 0%, 83.3333333333%)&quot;,&#10;      &quot;secondaryBorderColor&quot;: &quot;hsl(0, 0%, 88.9215686275%)&quot;,&#10;      &quot;tertiaryBorderColor&quot;: &quot;hsl(-160, 0%, 83.3333333333%)&quot;,&#10;      &quot;primaryTextColor&quot;: &quot;#111111&quot;,&#10;      &quot;secondaryTextColor&quot;: &quot;rgb(2.7499999999, 2.7499999999, 2.7499999999)&quot;,&#10;      &quot;tertiaryTextColor&quot;: &quot;rgb(17.0000000001, 17.0000000001, 17.0000000001)&quot;,&#10;      &quot;lineColor&quot;: &quot;#666&quot;,&#10;      &quot;textColor&quot;: &quot;#000000&quot;,&#10;      &quot;mainBkg&quot;: &quot;#eee&quot;,&#10;      &quot;secondBkg&quot;: &quot;hsl(0, 0%, 98.9215686275%)&quot;,&#10;      &quot;border1&quot;: &quot;#999&quot;,&#10;      &quot;border2&quot;: &quot;#707070&quot;,&#10;      &quot;note&quot;: &quot;#ffa&quot;,&#10;      &quot;text&quot;: &quot;#333&quot;,&#10;      &quot;critical&quot;: &quot;#d42&quot;,&#10;      &quot;done&quot;: &quot;#bbb&quot;,&#10;      &quot;arrowheadColor&quot;: &quot;#333333&quot;,&#10;      &quot;fontFamily&quot;: &quot;\&quot;trebuchet ms\&quot;, verdana, arial, sans-serif&quot;,&#10;      &quot;fontSize&quot;: &quot;16px&quot;,&#10;      &quot;THEME_COLOR_LIMIT&quot;: 12,&#10;      &quot;nodeBkg&quot;: &quot;#eee&quot;,&#10;      &quot;nodeBorder&quot;: &quot;#999&quot;,&#10;      &quot;clusterBkg&quot;: &quot;hsl(0, 0%, 98.9215686275%)&quot;,&#10;      &quot;clusterBorder&quot;: &quot;#707070&quot;,&#10;      &quot;defaultLinkColor&quot;: &quot;#666&quot;,&#10;      &quot;titleColor&quot;: &quot;#333&quot;,&#10;      &quot;edgeLabelBackground&quot;: &quot;white&quot;,&#10;      &quot;actorBorder&quot;: &quot;hsl(0, 0%, 83%)&quot;,&#10;      &quot;actorBkg&quot;: &quot;#eee&quot;,&#10;      &quot;actorTextColor&quot;: &quot;#333&quot;,&#10;      &quot;actorLineColor&quot;: &quot;#666&quot;,&#10;      &quot;signalColor&quot;: &quot;#333&quot;,&#10;      &quot;signalTextColor&quot;: &quot;#333&quot;,&#10;      &quot;labelBoxBkgColor&quot;: &quot;#eee&quot;,&#10;      &quot;labelBoxBorderColor&quot;: &quot;hsl(0, 0%, 83%)&quot;,&#10;      &quot;labelTextColor&quot;: &quot;#333&quot;,&#10;      &quot;loopTextColor&quot;: &quot;#333&quot;,&#10;      &quot;noteBorderColor&quot;: &quot;#999&quot;,&#10;      &quot;noteBkgColor&quot;: &quot;#666&quot;,&#10;      &quot;noteTextColor&quot;: &quot;#fff&quot;,&#10;      &quot;activationBorderColor&quot;: &quot;#666&quot;,&#10;      &quot;activationBkgColor&quot;: &quot;#f4f4f4&quot;,&#10;      &quot;sequenceNumberColor&quot;: &quot;white&quot;,&#10;      &quot;sectionBkgColor&quot;: &quot;hsl(0, 0%, 73.9215686275%)&quot;,&#10;      &quot;altSectionBkgColor&quot;: &quot;white&quot;,&#10;      &quot;sectionBkgColor2&quot;: &quot;hsl(0, 0%, 73.9215686275%)&quot;,&#10;      &quot;excludeBkgColor&quot;: &quot;#eeeeee&quot;,&#10;      &quot;taskBorderColor&quot;: &quot;hsl(0, 0%, 33.9215686275%)&quot;,&#10;      &quot;taskBkgColor&quot;: &quot;#707070&quot;,&#10;      &quot;taskTextLightColor&quot;: &quot;white&quot;,&#10;      &quot;taskTextColor&quot;: &quot;white&quot;,&#10;      &quot;taskTextDarkColor&quot;: &quot;#333&quot;,&#10;      &quot;taskTextOutsideColor&quot;: &quot;#333&quot;,&#10;      &quot;taskTextClickableColor&quot;: &quot;#003163&quot;,&#10;      &quot;activeTaskBorderColor&quot;: &quot;hsl(0, 0%, 33.9215686275%)&quot;,&#10;      &quot;activeTaskBkgColor&quot;: &quot;#eee&quot;,&#10;      &quot;gridColor&quot;: &quot;hsl(0, 0%, 90%)&quot;,&#10;      &quot;doneTaskBkgColor&quot;: &quot;#bbb&quot;,&#10;      &quot;doneTaskBorderColor&quot;: &quot;#666&quot;,&#10;      &quot;critBkgColor&quot;: &quot;#d42&quot;,&#10;      &quot;critBorderColor&quot;: &quot;hsl(10.9090909091, 73.3333333333%, 40%)&quot;,&#10;      &quot;todayLineColor&quot;: &quot;#d42&quot;,&#10;      &quot;personBorder&quot;: &quot;hsl(0, 0%, 83.3333333333%)&quot;,&#10;      &quot;personBkg&quot;: &quot;#eee&quot;,&#10;      &quot;labelColor&quot;: &quot;black&quot;,&#10;      &quot;errorBkgColor&quot;: &quot;#552222&quot;,&#10;      &quot;errorTextColor&quot;: &quot;#552222&quot;,&#10;      &quot;cScale0&quot;: &quot;#555&quot;,&#10;      &quot;cScale1&quot;: &quot;#F4F4F4&quot;,&#10;      &quot;cScale2&quot;: &quot;#555&quot;,&#10;      &quot;cScale3&quot;: &quot;#BBB&quot;,&#10;      &quot;cScale4&quot;: &quot;#777&quot;,&#10;      &quot;cScale5&quot;: &quot;#999&quot;,&#10;      &quot;cScale6&quot;: &quot;#DDD&quot;,&#10;      &quot;cScale7&quot;: &quot;#FFF&quot;,&#10;      &quot;cScale8&quot;: &quot;#DDD&quot;,&#10;      &quot;cScale9&quot;: &quot;#BBB&quot;,&#10;      &quot;cScale10&quot;: &quot;#999&quot;,&#10;      &quot;cScale11&quot;: &quot;#777&quot;,&#10;      &quot;cScaleInv0&quot;: &quot;#aaaaaa&quot;,&#10;      &quot;cScaleInv1&quot;: &quot;#0b0b0b&quot;,&#10;      &quot;cScaleInv2&quot;: &quot;#aaaaaa&quot;,&#10;      &quot;cScaleInv3&quot;: &quot;#444444&quot;,&#10;      &quot;cScaleInv4&quot;: &quot;#888888&quot;,&#10;      &quot;cScaleInv5&quot;: &quot;#666666&quot;,&#10;      &quot;cScaleInv6&quot;: &quot;#222222&quot;,&#10;      &quot;cScaleInv7&quot;: &quot;#000000&quot;,&#10;      &quot;cScaleInv8&quot;: &quot;#222222&quot;,&#10;      &quot;cScaleInv9&quot;: &quot;#444444&quot;,&#10;      &quot;cScaleInv10&quot;: &quot;#666666&quot;,&#10;      &quot;cScaleInv11&quot;: &quot;#888888&quot;,&#10;      &quot;cScalePeer0&quot;: &quot;hsl(0, 0%, 23.3333333333%)&quot;,&#10;      &quot;cScalePeer1&quot;: &quot;hsl(0, 0%, 85.6862745098%)&quot;,&#10;      &quot;cScalePeer2&quot;: &quot;hsl(0, 0%, 23.3333333333%)&quot;,&#10;      &quot;cScalePeer3&quot;: &quot;hsl(0, 0%, 63.3333333333%)&quot;,&#10;      &quot;cScalePeer4&quot;: &quot;hsl(0, 0%, 36.6666666667%)&quot;,&#10;      &quot;cScalePeer5&quot;: &quot;hsl(0, 0%, 50%)&quot;,&#10;      &quot;cScalePeer6&quot;: &quot;hsl(0, 0%, 76.6666666667%)&quot;,&#10;      &quot;cScalePeer7&quot;: &quot;hsl(0, 0%, 90%)&quot;,&#10;      &quot;cScalePeer8&quot;: &quot;hsl(0, 0%, 76.6666666667%)&quot;,&#10;      &quot;cScalePeer9&quot;: &quot;hsl(0, 0%, 63.3333333333%)&quot;,&#10;      &quot;cScalePeer10&quot;: &quot;hsl(0, 0%, 50%)&quot;,&#10;      &quot;cScalePeer11&quot;: &quot;hsl(0, 0%, 36.6666666667%)&quot;,&#10;      &quot;scaleLabelColor&quot;: &quot;#333&quot;,&#10;      &quot;cScaleLabel0&quot;: &quot;#F4F4F4&quot;,&#10;      &quot;cScaleLabel2&quot;: &quot;#F4F4F4&quot;,&#10;      &quot;cScaleLabel1&quot;: &quot;#333&quot;,&#10;      &quot;cScaleLabel3&quot;: &quot;#333&quot;,&#10;      &quot;cScaleLabel4&quot;: &quot;#333&quot;,&#10;      &quot;cScaleLabel5&quot;: &quot;#333&quot;,&#10;      &quot;cScaleLabel6&quot;: &quot;#333&quot;,&#10;      &quot;cScaleLabel7&quot;: &quot;#333&quot;,&#10;      &quot;cScaleLabel8&quot;: &quot;#333&quot;,&#10;      &quot;cScaleLabel9&quot;: &quot;#333&quot;,&#10;      &quot;cScaleLabel10&quot;: &quot;#333&quot;,&#10;      &quot;cScaleLabel11&quot;: &quot;#333&quot;,&#10;      &quot;surface0&quot;: &quot;hsl(0, 0%, 88.3333333333%)&quot;,&#10;      &quot;surfacePeer0&quot;: &quot;hsl(0, 0%, 85.3333333333%)&quot;,&#10;      &quot;surface1&quot;: &quot;hsl(0, 0%, 83.3333333333%)&quot;,&#10;      &quot;surfacePeer1&quot;: &quot;hsl(0, 0%, 80.3333333333%)&quot;,&#10;      &quot;surface2&quot;: &quot;hsl(0, 0%, 78.3333333333%)&quot;,&#10;      &quot;surfacePeer2&quot;: &quot;hsl(0, 0%, 75.3333333333%)&quot;,&#10;      &quot;surface3&quot;: &quot;hsl(0, 0%, 73.3333333333%)&quot;,&#10;      &quot;surfacePeer3&quot;: &quot;hsl(0, 0%, 70.3333333333%)&quot;,&#10;      &quot;surface4&quot;: &quot;hsl(0, 0%, 68.3333333333%)&quot;,&#10;      &quot;surfacePeer4&quot;: &quot;hsl(0, 0%, 65.3333333333%)&quot;,&#10;      &quot;transitionColor&quot;: &quot;#000&quot;,&#10;      &quot;transitionLabelColor&quot;: &quot;#000000&quot;,&#10;      &quot;stateLabelColor&quot;: &quot;#111111&quot;,&#10;      &quot;stateBkg&quot;: &quot;#eee&quot;,&#10;      &quot;labelBackgroundColor&quot;: &quot;#eee&quot;,&#10;      &quot;compositeBackground&quot;: &quot;#ffffff&quot;,&#10;      &quot;altBackground&quot;: &quot;#f4f4f4&quot;,&#10;      &quot;compositeTitleBackground&quot;: &quot;#eee&quot;,&#10;      &quot;stateBorder&quot;: &quot;#000&quot;,&#10;      &quot;innerEndBackground&quot;: &quot;hsl(0, 0%, 83.3333333333%)&quot;,&#10;      &quot;specialStateColor&quot;: &quot;#222&quot;,&#10;      &quot;classText&quot;: &quot;#111111&quot;,&#10;      &quot;fillType0&quot;: &quot;#eee&quot;,&#10;      &quot;fillType1&quot;: &quot;hsl(0, 0%, 98.9215686275%)&quot;,&#10;      &quot;fillType2&quot;: &quot;hsl(64, 0%, 93.3333333333%)&quot;,&#10;      &quot;fillType3&quot;: &quot;hsl(64, 0%, 98.9215686275%)&quot;,&#10;      &quot;fillType4&quot;: &quot;hsl(-64, 0%, 93.3333333333%)&quot;,&#10;      &quot;fillType5&quot;: &quot;hsl(-64, 0%, 98.9215686275%)&quot;,&#10;      &quot;fillType6&quot;: &quot;hsl(128, 0%, 93.3333333333%)&quot;,&#10;      &quot;fillType7&quot;: &quot;hsl(128, 0%, 98.9215686275%)&quot;,&#10;      &quot;pie0&quot;: &quot;#555&quot;,&#10;      &quot;pie1&quot;: &quot;#F4F4F4&quot;,&#10;      &quot;pie2&quot;: &quot;#555&quot;,&#10;      &quot;pie3&quot;: &quot;#BBB&quot;,&#10;      &quot;pie4&quot;: &quot;#777&quot;,&#10;      &quot;pie5&quot;: &quot;#999&quot;,&#10;      &quot;pie6&quot;: &quot;#DDD&quot;,&#10;      &quot;pie7&quot;: &quot;#FFF&quot;,&#10;      &quot;pie8&quot;: &quot;#DDD&quot;,&#10;      &quot;pie9&quot;: &quot;#BBB&quot;,&#10;      &quot;pie10&quot;: &quot;#999&quot;,&#10;      &quot;pie11&quot;: &quot;#777&quot;,&#10;      &quot;pie12&quot;: &quot;#555&quot;,&#10;      &quot;pieTitleTextSize&quot;: &quot;25px&quot;,&#10;      &quot;pieTitleTextColor&quot;: &quot;#333&quot;,&#10;      &quot;pieSectionTextSize&quot;: &quot;17px&quot;,&#10;      &quot;pieSectionTextColor&quot;: &quot;#000000&quot;,&#10;      &quot;pieLegendTextSize&quot;: &quot;17px&quot;,&#10;      &quot;pieLegendTextColor&quot;: &quot;#333&quot;,&#10;      &quot;pieStrokeColor&quot;: &quot;black&quot;,&#10;      &quot;pieStrokeWidth&quot;: &quot;2px&quot;,&#10;      &quot;pieOuterStrokeWidth&quot;: &quot;2px&quot;,&#10;      &quot;pieOuterStrokeColor&quot;: &quot;black&quot;,&#10;      &quot;pieOpacity&quot;: &quot;0.7&quot;,&#10;      &quot;quadrant1Fill&quot;: &quot;#eee&quot;,&#10;      &quot;quadrant2Fill&quot;: &quot;#f3f3f3&quot;,&#10;      &quot;quadrant3Fill&quot;: &quot;#f8f8f8&quot;,&#10;      &quot;quadrant4Fill&quot;: &quot;#fdfdfd&quot;,&#10;      &quot;quadrant1TextFill&quot;: &quot;#111111&quot;,&#10;      &quot;quadrant2TextFill&quot;: &quot;#0c0c0c&quot;,&#10;      &quot;quadrant3TextFill&quot;: &quot;#070707&quot;,&#10;      &quot;quadrant4TextFill&quot;: &quot;#020202&quot;,&#10;      &quot;quadrantPointFill&quot;: &quot;hsl(0, 0%, NaN%)&quot;,&#10;      &quot;quadrantPointTextFill&quot;: &quot;#111111&quot;,&#10;      &quot;quadrantXAxisTextFill&quot;: &quot;#111111&quot;,&#10;      &quot;quadrantYAxisTextFill&quot;: &quot;#111111&quot;,&#10;      &quot;quadrantInternalBorderStrokeFill&quot;: &quot;hsl(0, 0%, 83.3333333333%)&quot;,&#10;      &quot;quadrantExternalBorderStrokeFill&quot;: &quot;hsl(0, 0%, 83.3333333333%)&quot;,&#10;      &quot;quadrantTitleFill&quot;: &quot;#111111&quot;,&#10;      &quot;xyChart&quot;: {&#10;        &quot;backgroundColor&quot;: &quot;#ffffff&quot;,&#10;        &quot;titleColor&quot;: &quot;#111111&quot;,&#10;        &quot;xAxisTitleColor&quot;: &quot;#111111&quot;,&#10;        &quot;xAxisLabelColor&quot;: &quot;#111111&quot;,&#10;        &quot;xAxisTickColor&quot;: &quot;#111111&quot;,&#10;        &quot;xAxisLineColor&quot;: &quot;#111111&quot;,&#10;        &quot;yAxisTitleColor&quot;: &quot;#111111&quot;,&#10;        &quot;yAxisLabelColor&quot;: &quot;#111111&quot;,&#10;        &quot;yAxisTickColor&quot;: &quot;#111111&quot;,&#10;        &quot;yAxisLineColor&quot;: &quot;#111111&quot;,&#10;        &quot;plotColorPalette&quot;: &quot;#EEE,#6BB8E4,#8ACB88,#C7ACD6,#E8DCC2,#FFB2A8,#FFF380,#7E8D91,#FFD8B1,#FAF3E0&quot;&#10;      },&#10;      &quot;requirementBackground&quot;: &quot;#eee&quot;,&#10;      &quot;requirementBorderColor&quot;: &quot;hsl(0, 0%, 83.3333333333%)&quot;,&#10;      &quot;requirementBorderSize&quot;: &quot;1&quot;,&#10;      &quot;requirementTextColor&quot;: &quot;#111111&quot;,&#10;      &quot;relationColor&quot;: &quot;#666&quot;,&#10;      &quot;relationLabelBackground&quot;: &quot;white&quot;,&#10;      &quot;relationLabelColor&quot;: &quot;#333&quot;,&#10;      &quot;git0&quot;: &quot;hsl(0, 0%, 70.6862745098%)&quot;,&#10;      &quot;git1&quot;: &quot;#555&quot;,&#10;      &quot;git2&quot;: &quot;#BBB&quot;,&#10;      &quot;git3&quot;: &quot;#777&quot;,&#10;      &quot;git4&quot;: &quot;#999&quot;,&#10;      &quot;git5&quot;: &quot;#DDD&quot;,&#10;      &quot;git6&quot;: &quot;#FFF&quot;,&#10;      &quot;git7&quot;: &quot;#DDD&quot;,&#10;      &quot;gitInv0&quot;: &quot;rgb(74.75, 74.75, 74.75)&quot;,&#10;      &quot;gitInv1&quot;: &quot;#aaaaaa&quot;,&#10;      &quot;gitInv2&quot;: &quot;#444444&quot;,&#10;      &quot;gitInv3&quot;: &quot;#888888&quot;,&#10;      &quot;gitInv4&quot;: &quot;#666666&quot;,&#10;      &quot;gitInv5&quot;: &quot;#222222&quot;,&#10;      &quot;gitInv6&quot;: &quot;#000000&quot;,&#10;      &quot;gitInv7&quot;: &quot;#222222&quot;,&#10;      &quot;branchLabelColor&quot;: &quot;#333&quot;,&#10;      &quot;gitBranchLabel0&quot;: &quot;#333&quot;,&#10;      &quot;gitBranchLabel1&quot;: &quot;white&quot;,&#10;      &quot;gitBranchLabel2&quot;: &quot;#333&quot;,&#10;      &quot;gitBranchLabel3&quot;: &quot;white&quot;,&#10;      &quot;gitBranchLabel4&quot;: &quot;#333&quot;,&#10;      &quot;gitBranchLabel5&quot;: &quot;#333&quot;,&#10;      &quot;gitBranchLabel6&quot;: &quot;#333&quot;,&#10;      &quot;gitBranchLabel7&quot;: &quot;#333&quot;,&#10;      &quot;tagLabelColor&quot;: &quot;#111111&quot;,&#10;      &quot;tagLabelBackground&quot;: &quot;#eee&quot;,&#10;      &quot;tagLabelBorder&quot;: &quot;hsl(0, 0%, 83.3333333333%)&quot;,&#10;      &quot;tagLabelFontSize&quot;: &quot;10px&quot;,&#10;      &quot;commitLabelColor&quot;: &quot;rgb(2.7499999999, 2.7499999999, 2.7499999999)&quot;,&#10;      &quot;commitLabelBackground&quot;: &quot;hsl(0, 0%, 98.9215686275%)&quot;,&#10;      &quot;commitLabelFontSize&quot;: &quot;10px&quot;,&#10;      &quot;attributeBackgroundColorOdd&quot;: &quot;#ffffff&quot;,&#10;      &quot;attributeBackgroundColorEven&quot;: &quot;#f2f2f2&quot;&#10;    }&#10;  }&#10;}" id="CRHavhBo1eiveD7NQwF4-0">
                    <mxCell style="shape=image;noLabel=1;verticalAlign=top;imageAspect=1;image=data:image/svg+xml,PHN2ZyBhcmlhLXJvbGVkZXNjcmlwdGlvbj0ic2VxdWVuY2UiIHJvbGU9ImdyYXBoaWNzLWRvY3VtZW50IGRvY3VtZW50IiB2aWV3Qm94PSItNTAgLTEwIDg0OCAyNjMiIHN0eWxlPSJtYXgtd2lkdGg6IDg0OHB4OyIgeG1sbnM9Imh0dHA6Ly93d3cudzMub3JnLzIwMDAvc3ZnIiB3aWR0aD0iMTAwJSIgaWQ9ImdlTWVybWFpZE91dHB1dC0xNzI0ODg1MzA5NjEyIj48Zz48cmVjdCBjbGFzcz0iYWN0b3IgYWN0b3ItYm90dG9tIiByeT0iMyIgcng9IjMiIG5hbWU9Ik1HViIgaGVpZ2h0PSI2NSIgd2lkdGg9IjE1MCIgc3Ryb2tlPSIjNjY2IiBmaWxsPSIjZWFlYWVhIiB5PSIxNzciIHg9IjU5OCI+PC9yZWN0Pjx0ZXh0IHN0eWxlPSJ0ZXh0LWFuY2hvcjogbWlkZGxlOyBmb250LXNpemU6IDE2cHg7IGZvbnQtd2VpZ2h0OiA0MDA7IiBjbGFzcz0iYWN0b3IiIGFsaWdubWVudC1iYXNlbGluZT0iY2VudHJhbCIgZG9taW5hbnQtYmFzZWxpbmU9ImNlbnRyYWwiIHk9IjIwOS41IiB4PSI2NzMiPjx0c3BhbiBkeT0iMCIgeD0iNjczIj5teUdvdjwvdHNwYW4+PC90ZXh0PjwvZz48Zz48cmVjdCBjbGFzcz0iYWN0b3IgYWN0b3ItYm90dG9tIiByeT0iMyIgcng9IjMiIG5hbWU9Ik1HVl9FU0IiIGhlaWdodD0iNjUiIHdpZHRoPSIxNTAiIHN0cm9rZT0iIzY2NiIgZmlsbD0iI2VhZWFlYSIgeT0iMTc3IiB4PSIyOTkiPjwvcmVjdD48dGV4dCBzdHlsZT0idGV4dC1hbmNob3I6IG1pZGRsZTsgZm9udC1zaXplOiAxNnB4OyBmb250LXdlaWdodDogNDAwOyIgY2xhc3M9ImFjdG9yIiBhbGlnbm1lbnQtYmFzZWxpbmU9ImNlbnRyYWwiIGRvbWluYW50LWJhc2VsaW5lPSJjZW50cmFsIiB5PSIyMDkuNSIgeD0iMzc0Ij48dHNwYW4gZHk9IjAiIHg9IjM3NCI+bXlHb3YgRVNCPC90c3Bhbj48L3RleHQ+PC9nPjxnPjxyZWN0IGNsYXNzPSJhY3RvciBhY3Rvci1ib3R0b20iIHJ5PSIzIiByeD0iMyIgbmFtZT0iTUdWX01TIiBoZWlnaHQ9IjY1IiB3aWR0aD0iMTUwIiBzdHJva2U9IiM2NjYiIGZpbGw9IiNlYWVhZWEiIHk9IjE3NyIgeD0iMCI+PC9yZWN0Pjx0ZXh0IHN0eWxlPSJ0ZXh0LWFuY2hvcjogbWlkZGxlOyBmb250LXNpemU6IDE2cHg7IGZvbnQtd2VpZ2h0OiA0MDA7IiBjbGFzcz0iYWN0b3IiIGFsaWdubWVudC1iYXNlbGluZT0iY2VudHJhbCIgZG9taW5hbnQtYmFzZWxpbmU9ImNlbnRyYWwiIHk9IjIwOS41IiB4PSI3NSI+PHRzcGFuIGR5PSIwIiB4PSI3NSI+TWVtYmVyIFNlcnZpY2U8L3RzcGFuPjwvdGV4dD48L2c+PGc+PGxpbmUgc3Ryb2tlPSIjOTk5IiBzdHJva2Utd2lkdGg9IjAuNXB4IiBjbGFzcz0iMjAwIiB5Mj0iMTc3IiB4Mj0iNjczIiB5MT0iNSIgeDE9IjY3MyIgaWQ9ImFjdG9yMiI+PC9saW5lPjxnIGlkPSJyb290LTIiPjxyZWN0IGNsYXNzPSJhY3RvciBhY3Rvci10b3AiIHJ5PSIzIiByeD0iMyIgbmFtZT0iTUdWIiBoZWlnaHQ9IjY1IiB3aWR0aD0iMTUwIiBzdHJva2U9IiM2NjYiIGZpbGw9IiNlYWVhZWEiIHk9IjAiIHg9IjU5OCI+PC9yZWN0Pjx0ZXh0IHN0eWxlPSJ0ZXh0LWFuY2hvcjogbWlkZGxlOyBmb250LXNpemU6IDE2cHg7IGZvbnQtd2VpZ2h0OiA0MDA7IiBjbGFzcz0iYWN0b3IiIGFsaWdubWVudC1iYXNlbGluZT0iY2VudHJhbCIgZG9taW5hbnQtYmFzZWxpbmU9ImNlbnRyYWwiIHk9IjMyLjUiIHg9IjY3MyI+PHRzcGFuIGR5PSIwIiB4PSI2NzMiPm15R292PC90c3Bhbj48L3RleHQ+PC9nPjwvZz48Zz48bGluZSBzdHJva2U9IiM5OTkiIHN0cm9rZS13aWR0aD0iMC41cHgiIGNsYXNzPSIyMDAiIHkyPSIxNzciIHgyPSIzNzQiIHkxPSI1IiB4MT0iMzc0IiBpZD0iYWN0b3IxIj48L2xpbmU+PGcgaWQ9InJvb3QtMSI+PHJlY3QgY2xhc3M9ImFjdG9yIGFjdG9yLXRvcCIgcnk9IjMiIHJ4PSIzIiBuYW1lPSJNR1ZfRVNCIiBoZWlnaHQ9IjY1IiB3aWR0aD0iMTUwIiBzdHJva2U9IiM2NjYiIGZpbGw9IiNlYWVhZWEiIHk9IjAiIHg9IjI5OSI+PC9yZWN0Pjx0ZXh0IHN0eWxlPSJ0ZXh0LWFuY2hvcjogbWlkZGxlOyBmb250LXNpemU6IDE2cHg7IGZvbnQtd2VpZ2h0OiA0MDA7IiBjbGFzcz0iYWN0b3IiIGFsaWdubWVudC1iYXNlbGluZT0iY2VudHJhbCIgZG9taW5hbnQtYmFzZWxpbmU9ImNlbnRyYWwiIHk9IjMyLjUiIHg9IjM3NCI+PHRzcGFuIGR5PSIwIiB4PSIzNzQiPm15R292IEVTQjwvdHNwYW4+PC90ZXh0PjwvZz48L2c+PGc+PGxpbmUgc3Ryb2tlPSIjOTk5IiBzdHJva2Utd2lkdGg9IjAuNXB4IiBjbGFzcz0iMjAwIiB5Mj0iMTc3IiB4Mj0iNzUiIHkxPSI1IiB4MT0iNzUiIGlkPSJhY3RvcjAiPjwvbGluZT48ZyBpZD0icm9vdC0wIj48cmVjdCBjbGFzcz0iYWN0b3IgYWN0b3ItdG9wIiByeT0iMyIgcng9IjMiIG5hbWU9Ik1HVl9NUyIgaGVpZ2h0PSI2NSIgd2lkdGg9IjE1MCIgc3Ryb2tlPSIjNjY2IiBmaWxsPSIjZWFlYWVhIiB5PSIwIiB4PSIwIj48L3JlY3Q+PHRleHQgc3R5bGU9InRleHQtYW5jaG9yOiBtaWRkbGU7IGZvbnQtc2l6ZTogMTZweDsgZm9udC13ZWlnaHQ6IDQwMDsiIGNsYXNzPSJhY3RvciIgYWxpZ25tZW50LWJhc2VsaW5lPSJjZW50cmFsIiBkb21pbmFudC1iYXNlbGluZT0iY2VudHJhbCIgeT0iMzIuNSIgeD0iNzUiPjx0c3BhbiBkeT0iMCIgeD0iNzUiPk1lbWJlciBTZXJ2aWNlPC90c3Bhbj48L3RleHQ+PC9nPjwvZz48c3R5bGU+I2dlTWVybWFpZE91dHB1dC0xNzI0ODg1MzA5NjEye2ZvbnQtZmFtaWx5OiJ0cmVidWNoZXQgbXMiLHZlcmRhbmEsYXJpYWwsc2Fucy1zZXJpZjtmb250LXNpemU6MTZweDtmaWxsOiMwMDAwMDA7fSNnZU1lcm1haWRPdXRwdXQtMTcyNDg4NTMwOTYxMiAuZXJyb3ItaWNvbntmaWxsOiM1NTIyMjI7fSNnZU1lcm1haWRPdXRwdXQtMTcyNDg4NTMwOTYxMiAuZXJyb3ItdGV4dHtmaWxsOiM1NTIyMjI7c3Ryb2tlOiM1NTIyMjI7fSNnZU1lcm1haWRPdXRwdXQtMTcyNDg4NTMwOTYxMiAuZWRnZS10aGlja25lc3Mtbm9ybWFse3N0cm9rZS13aWR0aDoycHg7fSNnZU1lcm1haWRPdXRwdXQtMTcyNDg4NTMwOTYxMiAuZWRnZS10aGlja25lc3MtdGhpY2t7c3Ryb2tlLXdpZHRoOjMuNXB4O30jZ2VNZXJtYWlkT3V0cHV0LTE3MjQ4ODUzMDk2MTIgLmVkZ2UtcGF0dGVybi1zb2xpZHtzdHJva2UtZGFzaGFycmF5OjA7fSNnZU1lcm1haWRPdXRwdXQtMTcyNDg4NTMwOTYxMiAuZWRnZS1wYXR0ZXJuLWRhc2hlZHtzdHJva2UtZGFzaGFycmF5OjM7fSNnZU1lcm1haWRPdXRwdXQtMTcyNDg4NTMwOTYxMiAuZWRnZS1wYXR0ZXJuLWRvdHRlZHtzdHJva2UtZGFzaGFycmF5OjI7fSNnZU1lcm1haWRPdXRwdXQtMTcyNDg4NTMwOTYxMiAubWFya2Vye2ZpbGw6IzAwMDAwMDtzdHJva2U6IzAwMDAwMDt9I2dlTWVybWFpZE91dHB1dC0xNzI0ODg1MzA5NjEyIC5tYXJrZXIuY3Jvc3N7c3Ryb2tlOiMwMDAwMDA7fSNnZU1lcm1haWRPdXRwdXQtMTcyNDg4NTMwOTYxMiBzdmd7Zm9udC1mYW1pbHk6InRyZWJ1Y2hldCBtcyIsdmVyZGFuYSxhcmlhbCxzYW5zLXNlcmlmO2ZvbnQtc2l6ZToxNnB4O30jZ2VNZXJtYWlkT3V0cHV0LTE3MjQ4ODUzMDk2MTIgLmFjdG9ye3N0cm9rZTpoc2woNzguMTU3ODk0NzM2OCwgNTguNDYxNTM4NDYxNSUsIDU0LjUwOTgwMzkyMTYlKTtmaWxsOiNjZGU0OTg7fSNnZU1lcm1haWRPdXRwdXQtMTcyNDg4NTMwOTYxMiB0ZXh0LmFjdG9yJmd0O3RzcGFue2ZpbGw6YmxhY2s7c3Ryb2tlOm5vbmU7fSNnZU1lcm1haWRPdXRwdXQtMTcyNDg4NTMwOTYxMiAuYWN0b3ItbGluZXtzdHJva2U6Z3JleTt9I2dlTWVybWFpZE91dHB1dC0xNzI0ODg1MzA5NjEyIC5tZXNzYWdlTGluZTB7c3Ryb2tlLXdpZHRoOjEuNTtzdHJva2UtZGFzaGFycmF5Om5vbmU7c3Ryb2tlOiMzMzM7fSNnZU1lcm1haWRPdXRwdXQtMTcyNDg4NTMwOTYxMiAubWVzc2FnZUxpbmUxe3N0cm9rZS13aWR0aDoxLjU7c3Ryb2tlLWRhc2hhcnJheToyLDI7c3Ryb2tlOiMzMzM7fSNnZU1lcm1haWRPdXRwdXQtMTcyNDg4NTMwOTYxMiAjYXJyb3doZWFkIHBhdGh7ZmlsbDojMzMzO3N0cm9rZTojMzMzO30jZ2VNZXJtYWlkT3V0cHV0LTE3MjQ4ODUzMDk2MTIgLnNlcXVlbmNlTnVtYmVye2ZpbGw6d2hpdGU7fSNnZU1lcm1haWRPdXRwdXQtMTcyNDg4NTMwOTYxMiAjc2VxdWVuY2VudW1iZXJ7ZmlsbDojMzMzO30jZ2VNZXJtYWlkT3V0cHV0LTE3MjQ4ODUzMDk2MTIgI2Nyb3NzaGVhZCBwYXRoe2ZpbGw6IzMzMztzdHJva2U6IzMzMzt9I2dlTWVybWFpZE91dHB1dC0xNzI0ODg1MzA5NjEyIC5tZXNzYWdlVGV4dHtmaWxsOiMzMzM7c3Ryb2tlOm5vbmU7fSNnZU1lcm1haWRPdXRwdXQtMTcyNDg4NTMwOTYxMiAubGFiZWxCb3h7c3Ryb2tlOiMzMjY5MzI7ZmlsbDojY2RlNDk4O30jZ2VNZXJtYWlkT3V0cHV0LTE3MjQ4ODUzMDk2MTIgLmxhYmVsVGV4dCwjZ2VNZXJtYWlkT3V0cHV0LTE3MjQ4ODUzMDk2MTIgLmxhYmVsVGV4dCZndDt0c3BhbntmaWxsOmJsYWNrO3N0cm9rZTpub25lO30jZ2VNZXJtYWlkT3V0cHV0LTE3MjQ4ODUzMDk2MTIgLmxvb3BUZXh0LCNnZU1lcm1haWRPdXRwdXQtMTcyNDg4NTMwOTYxMiAubG9vcFRleHQmZ3Q7dHNwYW57ZmlsbDpibGFjaztzdHJva2U6bm9uZTt9I2dlTWVybWFpZE91dHB1dC0xNzI0ODg1MzA5NjEyIC5sb29wTGluZXtzdHJva2Utd2lkdGg6MnB4O3N0cm9rZS1kYXNoYXJyYXk6MiwyO3N0cm9rZTojMzI2OTMyO2ZpbGw6IzMyNjkzMjt9I2dlTWVybWFpZE91dHB1dC0xNzI0ODg1MzA5NjEyIC5ub3Rle3N0cm9rZTojNmVhYTQ5O2ZpbGw6I2ZmZjVhZDt9I2dlTWVybWFpZE91dHB1dC0xNzI0ODg1MzA5NjEyIC5ub3RlVGV4dCwjZ2VNZXJtYWlkT3V0cHV0LTE3MjQ4ODUzMDk2MTIgLm5vdGVUZXh0Jmd0O3RzcGFue2ZpbGw6YmxhY2s7c3Ryb2tlOm5vbmU7fSNnZU1lcm1haWRPdXRwdXQtMTcyNDg4NTMwOTYxMiAuYWN0aXZhdGlvbjB7ZmlsbDojZjRmNGY0O3N0cm9rZTojNjY2O30jZ2VNZXJtYWlkT3V0cHV0LTE3MjQ4ODUzMDk2MTIgLmFjdGl2YXRpb24xe2ZpbGw6I2Y0ZjRmNDtzdHJva2U6IzY2Njt9I2dlTWVybWFpZE91dHB1dC0xNzI0ODg1MzA5NjEyIC5hY3RpdmF0aW9uMntmaWxsOiNmNGY0ZjQ7c3Ryb2tlOiM2NjY7fSNnZU1lcm1haWRPdXRwdXQtMTcyNDg4NTMwOTYxMiAuYWN0b3JQb3B1cE1lbnV7cG9zaXRpb246YWJzb2x1dGU7fSNnZU1lcm1haWRPdXRwdXQtMTcyNDg4NTMwOTYxMiAuYWN0b3JQb3B1cE1lbnVQYW5lbHtwb3NpdGlvbjphYnNvbHV0ZTtmaWxsOiNjZGU0OTg7Ym94LXNoYWRvdzowcHggOHB4IDE2cHggMHB4IHJnYmEoMCwwLDAsMC4yKTtmaWx0ZXI6ZHJvcC1zaGFkb3coM3B4IDVweCAycHggcmdiKDAgMCAwIC8gMC40KSk7fSNnZU1lcm1haWRPdXRwdXQtMTcyNDg4NTMwOTYxMiAuYWN0b3ItbWFuIGxpbmV7c3Ryb2tlOmhzbCg3OC4xNTc4OTQ3MzY4LCA1OC40NjE1Mzg0NjE1JSwgNTQuNTA5ODAzOTIxNiUpO2ZpbGw6I2NkZTQ5ODt9I2dlTWVybWFpZE91dHB1dC0xNzI0ODg1MzA5NjEyIC5hY3Rvci1tYW4gY2lyY2xlLCNnZU1lcm1haWRPdXRwdXQtMTcyNDg4NTMwOTYxMiBsaW5le3N0cm9rZTpoc2woNzguMTU3ODk0NzM2OCwgNTguNDYxNTM4NDYxNSUsIDU0LjUwOTgwMzkyMTYlKTtmaWxsOiNjZGU0OTg7c3Ryb2tlLXdpZHRoOjJweDt9I2dlTWVybWFpZE91dHB1dC0xNzI0ODg1MzA5NjEyIDpyb290ey0tbWVybWFpZC1mb250LWZhbWlseToidHJlYnVjaGV0IG1zIix2ZXJkYW5hLGFyaWFsLHNhbnMtc2VyaWY7fTwvc3R5bGU+PGc+PC9nPjxkZWZzPjxzeW1ib2wgaGVpZ2h0PSIyNCIgd2lkdGg9IjI0IiBpZD0iY29tcHV0ZXIiPjxwYXRoIGQ9Ik0yIDJ2MTNoMjB2LTEzaC0yMHptMTggMTFoLTE2di05aDE2djl6bS0xMC4yMjggNmwuNDY2LTFoMy41MjRsLjQ2NyAxaC00LjQ1N3ptMTQuMjI4IDNoLTI0bDItNmgyLjEwNGwtMS4zMyA0aDE4LjQ1bC0xLjI5Ny00aDIuMDczbDIgNnptLTUtMTBoLTE0di03aDE0djd6IiB0cmFuc2Zvcm09InNjYWxlKC41KSI+PC9wYXRoPjwvc3ltYm9sPjwvZGVmcz48ZGVmcz48c3ltYm9sIGNsaXAtcnVsZT0iZXZlbm9kZCIgZmlsbC1ydWxlPSJldmVub2RkIiBpZD0iZGF0YWJhc2UiPjxwYXRoIGQ9Ik0xMi4yNTguMDAxbC4yNTYuMDA0LjI1NS4wMDUuMjUzLjAwOC4yNTEuMDEuMjQ5LjAxMi4yNDcuMDE1LjI0Ni4wMTYuMjQyLjAxOS4yNDEuMDIuMjM5LjAyMy4yMzYuMDI0LjIzMy4wMjcuMjMxLjAyOC4yMjkuMDMxLjIyNS4wMzIuMjIzLjAzNC4yMi4wMzYuMjE3LjAzOC4yMTQuMDQuMjExLjA0MS4yMDguMDQzLjIwNS4wNDUuMjAxLjA0Ni4xOTguMDQ4LjE5NC4wNS4xOTEuMDUxLjE4Ny4wNTMuMTgzLjA1NC4xOC4wNTYuMTc1LjA1Ny4xNzIuMDU5LjE2OC4wNi4xNjMuMDYxLjE2LjA2My4xNTUuMDY0LjE1LjA2Ni4wNzQuMDMzLjA3My4wMzMuMDcxLjAzNC4wNy4wMzQuMDY5LjAzNS4wNjguMDM1LjA2Ny4wMzUuMDY2LjAzNS4wNjQuMDM2LjA2NC4wMzYuMDYyLjAzNi4wNi4wMzYuMDYuMDM3LjA1OC4wMzcuMDU4LjAzNy4wNTUuMDM4LjA1NS4wMzguMDUzLjAzOC4wNTIuMDM4LjA1MS4wMzkuMDUuMDM5LjA0OC4wMzkuMDQ3LjAzOS4wNDUuMDQuMDQ0LjA0LjA0My4wNC4wNDEuMDQuMDQuMDQxLjAzOS4wNDEuMDM3LjA0MS4wMzYuMDQxLjAzNC4wNDEuMDMzLjA0Mi4wMzIuMDQyLjAzLjA0Mi4wMjkuMDQyLjAyNy4wNDIuMDI2LjA0My4wMjQuMDQzLjAyMy4wNDMuMDIxLjA0My4wMi4wNDMuMDE4LjA0NC4wMTcuMDQzLjAxNS4wNDQuMDEzLjA0NC4wMTIuMDQ0LjAxMS4wNDUuMDA5LjA0NC4wMDcuMDQ1LjAwNi4wNDUuMDA0LjA0NS4wMDIuMDQ1LjAwMS4wNDV2MTdsLS4wMDEuMDQ1LS4wMDIuMDQ1LS4wMDQuMDQ1LS4wMDYuMDQ1LS4wMDcuMDQ1LS4wMDkuMDQ0LS4wMTEuMDQ1LS4wMTIuMDQ0LS4wMTMuMDQ0LS4wMTUuMDQ0LS4wMTcuMDQzLS4wMTguMDQ0LS4wMi4wNDMtLjAyMS4wNDMtLjAyMy4wNDMtLjAyNC4wNDMtLjAyNi4wNDMtLjAyNy4wNDItLjAyOS4wNDItLjAzLjA0Mi0uMDMyLjA0Mi0uMDMzLjA0Mi0uMDM0LjA0MS0uMDM2LjA0MS0uMDM3LjA0MS0uMDM5LjA0MS0uMDQuMDQxLS4wNDEuMDQtLjA0My4wNC0uMDQ0LjA0LS4wNDUuMDQtLjA0Ny4wMzktLjA0OC4wMzktLjA1LjAzOS0uMDUxLjAzOS0uMDUyLjAzOC0uMDUzLjAzOC0uMDU1LjAzOC0uMDU1LjAzOC0uMDU4LjAzNy0uMDU4LjAzNy0uMDYuMDM3LS4wNi4wMzYtLjA2Mi4wMzYtLjA2NC4wMzYtLjA2NC4wMzYtLjA2Ni4wMzUtLjA2Ny4wMzUtLjA2OC4wMzUtLjA2OS4wMzUtLjA3LjAzNC0uMDcxLjAzNC0uMDczLjAzMy0uMDc0LjAzMy0uMTUuMDY2LS4xNTUuMDY0LS4xNi4wNjMtLjE2My4wNjEtLjE2OC4wNi0uMTcyLjA1OS0uMTc1LjA1Ny0uMTguMDU2LS4xODMuMDU0LS4xODcuMDUzLS4xOTEuMDUxLS4xOTQuMDUtLjE5OC4wNDgtLjIwMS4wNDYtLjIwNS4wNDUtLjIwOC4wNDMtLjIxMS4wNDEtLjIxNC4wNC0uMjE3LjAzOC0uMjIuMDM2LS4yMjMuMDM0LS4yMjUuMDMyLS4yMjkuMDMxLS4yMzEuMDI4LS4yMzMuMDI3LS4yMzYuMDI0LS4yMzkuMDIzLS4yNDEuMDItLjI0Mi4wMTktLjI0Ni4wMTYtLjI0Ny4wMTUtLjI0OS4wMTItLjI1MS4wMS0uMjUzLjAwOC0uMjU1LjAwNS0uMjU2LjAwNC0uMjU4LjAwMS0uMjU4LS4wMDEtLjI1Ni0uMDA0LS4yNTUtLjAwNS0uMjUzLS4wMDgtLjI1MS0uMDEtLjI0OS0uMDEyLS4yNDctLjAxNS0uMjQ1LS4wMTYtLjI0My0uMDE5LS4yNDEtLjAyLS4yMzgtLjAyMy0uMjM2LS4wMjQtLjIzNC0uMDI3LS4yMzEtLjAyOC0uMjI4LS4wMzEtLjIyNi0uMDMyLS4yMjMtLjAzNC0uMjItLjAzNi0uMjE3LS4wMzgtLjIxNC0uMDQtLjIxMS0uMDQxLS4yMDgtLjA0My0uMjA0LS4wNDUtLjIwMS0uMDQ2LS4xOTgtLjA0OC0uMTk1LS4wNS0uMTktLjA1MS0uMTg3LS4wNTMtLjE4NC0uMDU0LS4xNzktLjA1Ni0uMTc2LS4wNTctLjE3Mi0uMDU5LS4xNjctLjA2LS4xNjQtLjA2MS0uMTU5LS4wNjMtLjE1NS0uMDY0LS4xNTEtLjA2Ni0uMDc0LS4wMzMtLjA3Mi0uMDMzLS4wNzItLjAzNC0uMDctLjAzNC0uMDY5LS4wMzUtLjA2OC0uMDM1LS4wNjctLjAzNS0uMDY2LS4wMzUtLjA2NC0uMDM2LS4wNjMtLjAzNi0uMDYyLS4wMzYtLjA2MS0uMDM2LS4wNi0uMDM3LS4wNTgtLjAzNy0uMDU3LS4wMzctLjA1Ni0uMDM4LS4wNTUtLjAzOC0uMDUzLS4wMzgtLjA1Mi0uMDM4LS4wNTEtLjAzOS0uMDQ5LS4wMzktLjA0OS0uMDM5LS4wNDYtLjAzOS0uMDQ2LS4wNC0uMDQ0LS4wNC0uMDQzLS4wNC0uMDQxLS4wNC0uMDQtLjA0MS0uMDM5LS4wNDEtLjAzNy0uMDQxLS4wMzYtLjA0MS0uMDM0LS4wNDEtLjAzMy0uMDQyLS4wMzItLjA0Mi0uMDMtLjA0Mi0uMDI5LS4wNDItLjAyNy0uMDQyLS4wMjYtLjA0My0uMDI0LS4wNDMtLjAyMy0uMDQzLS4wMjEtLjA0My0uMDItLjA0My0uMDE4LS4wNDQtLjAxNy0uMDQzLS4wMTUtLjA0NC0uMDEzLS4wNDQtLjAxMi0uMDQ0LS4wMTEtLjA0NS0uMDA5LS4wNDQtLjAwNy0uMDQ1LS4wMDYtLjA0NS0uMDA0LS4wNDUtLjAwMi0uMDQ1LS4wMDEtLjA0NXYtMTdsLjAwMS0uMDQ1LjAwMi0uMDQ1LjAwNC0uMDQ1LjAwNi0uMDQ1LjAwNy0uMDQ1LjAwOS0uMDQ0LjAxMS0uMDQ1LjAxMi0uMDQ0LjAxMy0uMDQ0LjAxNS0uMDQ0LjAxNy0uMDQzLjAxOC0uMDQ0LjAyLS4wNDMuMDIxLS4wNDMuMDIzLS4wNDMuMDI0LS4wNDMuMDI2LS4wNDMuMDI3LS4wNDIuMDI5LS4wNDIuMDMtLjA0Mi4wMzItLjA0Mi4wMzMtLjA0Mi4wMzQtLjA0MS4wMzYtLjA0MS4wMzctLjA0MS4wMzktLjA0MS4wNC0uMDQxLjA0MS0uMDQuMDQzLS4wNC4wNDQtLjA0LjA0Ni0uMDQuMDQ2LS4wMzkuMDQ5LS4wMzkuMDQ5LS4wMzkuMDUxLS4wMzkuMDUyLS4wMzguMDUzLS4wMzguMDU1LS4wMzguMDU2LS4wMzguMDU3LS4wMzcuMDU4LS4wMzcuMDYtLjAzNy4wNjEtLjAzNi4wNjItLjAzNi4wNjMtLjAzNi4wNjQtLjAzNi4wNjYtLjAzNS4wNjctLjAzNS4wNjgtLjAzNS4wNjktLjAzNS4wNy0uMDM0LjA3Mi0uMDM0LjA3Mi0uMDMzLjA3NC0uMDMzLjE1MS0uMDY2LjE1NS0uMDY0LjE1OS0uMDYzLjE2NC0uMDYxLjE2Ny0uMDYuMTcyLS4wNTkuMTc2LS4wNTcuMTc5LS4wNTYuMTg0LS4wNTQuMTg3LS4wNTMuMTktLjA1MS4xOTUtLjA1LjE5OC0uMDQ4LjIwMS0uMDQ2LjIwNC0uMDQ1LjIwOC0uMDQzLjIxMS0uMDQxLjIxNC0uMDQuMjE3LS4wMzguMjItLjAzNi4yMjMtLjAzNC4yMjYtLjAzMi4yMjgtLjAzMS4yMzEtLjAyOC4yMzQtLjAyNy4yMzYtLjAyNC4yMzgtLjAyMy4yNDEtLjAyLjI0My0uMDE5LjI0NS0uMDE2LjI0Ny0uMDE1LjI0OS0uMDEyLjI1MS0uMDEuMjUzLS4wMDguMjU1LS4wMDUuMjU2LS4wMDQuMjU4LS4wMDEuMjU4LjAwMXptLTkuMjU4IDIwLjQ5OXYuMDFsLjAwMS4wMjEuMDAzLjAyMS4wMDQuMDIyLjAwNS4wMjEuMDA2LjAyMi4wMDcuMDIyLjAwOS4wMjMuMDEuMDIyLjAxMS4wMjMuMDEyLjAyMy4wMTMuMDIzLjAxNS4wMjMuMDE2LjAyNC4wMTcuMDIzLjAxOC4wMjQuMDE5LjAyNC4wMjEuMDI0LjAyMi4wMjUuMDIzLjAyNC4wMjQuMDI1LjA1Mi4wNDkuMDU2LjA1LjA2MS4wNTEuMDY2LjA1MS4wNy4wNTEuMDc1LjA1MS4wNzkuMDUyLjA4NC4wNTIuMDg4LjA1Mi4wOTIuMDUyLjA5Ny4wNTIuMTAyLjA1MS4xMDUuMDUyLjExLjA1Mi4xMTQuMDUxLjExOS4wNTEuMTIzLjA1MS4xMjcuMDUuMTMxLjA1LjEzNS4wNS4xMzkuMDQ4LjE0NC4wNDkuMTQ3LjA0Ny4xNTIuMDQ3LjE1NS4wNDcuMTYuMDQ1LjE2My4wNDUuMTY3LjA0My4xNzEuMDQzLjE3Ni4wNDEuMTc4LjA0MS4xODMuMDM5LjE4Ny4wMzkuMTkuMDM3LjE5NC4wMzUuMTk3LjAzNS4yMDIuMDMzLjIwNC4wMzEuMjA5LjAzLjIxMi4wMjkuMjE2LjAyNy4yMTkuMDI1LjIyMi4wMjQuMjI2LjAyMS4yMy4wMi4yMzMuMDE4LjIzNi4wMTYuMjQuMDE1LjI0My4wMTIuMjQ2LjAxLjI0OS4wMDguMjUzLjAwNS4yNTYuMDA0LjI1OS4wMDEuMjYtLjAwMS4yNTctLjAwNC4yNTQtLjAwNS4yNS0uMDA4LjI0Ny0uMDExLjI0NC0uMDEyLjI0MS0uMDE0LjIzNy0uMDE2LjIzMy0uMDE4LjIzMS0uMDIxLjIyNi0uMDIxLjIyNC0uMDI0LjIyLS4wMjYuMjE2LS4wMjcuMjEyLS4wMjguMjEtLjAzMS4yMDUtLjAzMS4yMDItLjAzNC4xOTgtLjAzNC4xOTQtLjAzNi4xOTEtLjAzNy4xODctLjAzOS4xODMtLjA0LjE3OS0uMDQuMTc1LS4wNDIuMTcyLS4wNDMuMTY4LS4wNDQuMTYzLS4wNDUuMTYtLjA0Ni4xNTUtLjA0Ni4xNTItLjA0Ny4xNDgtLjA0OC4xNDMtLjA0OS4xMzktLjA0OS4xMzYtLjA1LjEzMS0uMDUuMTI2LS4wNS4xMjMtLjA1MS4xMTgtLjA1Mi4xMTQtLjA1MS4xMS0uMDUyLjEwNi0uMDUyLjEwMS0uMDUyLjA5Ni0uMDUyLjA5Mi0uMDUyLjA4OC0uMDUzLjA4My0uMDUxLjA3OS0uMDUyLjA3NC0uMDUyLjA3LS4wNTEuMDY1LS4wNTEuMDYtLjA1MS4wNTYtLjA1LjA1MS0uMDUuMDIzLS4wMjQuMDIzLS4wMjUuMDIxLS4wMjQuMDItLjAyNC4wMTktLjAyNC4wMTgtLjAyNC4wMTctLjAyNC4wMTUtLjAyMy4wMTQtLjAyNC4wMTMtLjAyMy4wMTItLjAyMy4wMS0uMDIzLjAxLS4wMjIuMDA4LS4wMjIuMDA2LS4wMjIuMDA2LS4wMjIuMDA0LS4wMjIuMDA0LS4wMjEuMDAxLS4wMjEuMDAxLS4wMjF2LTQuMTI3bC0uMDc3LjA1NS0uMDguMDUzLS4wODMuMDU0LS4wODUuMDUzLS4wODcuMDUyLS4wOS4wNTItLjA5My4wNTEtLjA5NS4wNS0uMDk3LjA1LS4xLjA0OS0uMTAyLjA0OS0uMTA1LjA0OC0uMTA2LjA0Ny0uMTA5LjA0Ny0uMTExLjA0Ni0uMTE0LjA0NS0uMTE1LjA0NS0uMTE4LjA0NC0uMTIuMDQzLS4xMjIuMDQyLS4xMjQuMDQyLS4xMjYuMDQxLS4xMjguMDQtLjEzLjA0LS4xMzIuMDM4LS4xMzQuMDM4LS4xMzUuMDM3LS4xMzguMDM3LS4xMzkuMDM1LS4xNDIuMDM1LS4xNDMuMDM0LS4xNDQuMDMzLS4xNDcuMDMyLS4xNDguMDMxLS4xNS4wMy0uMTUxLjAzLS4xNTMuMDI5LS4xNTQuMDI3LS4xNTYuMDI3LS4xNTguMDI2LS4xNTkuMDI1LS4xNjEuMDI0LS4xNjIuMDIzLS4xNjMuMDIyLS4xNjUuMDIxLS4xNjYuMDItLjE2Ny4wMTktLjE2OS4wMTgtLjE2OS4wMTctLjE3MS4wMTYtLjE3My4wMTUtLjE3My4wMTQtLjE3NS4wMTMtLjE3NS4wMTItLjE3Ny4wMTEtLjE3OC4wMS0uMTc5LjAwOC0uMTc5LjAwOC0uMTgxLjAwNi0uMTgyLjAwNS0uMTgyLjAwNC0uMTg0LjAwMy0uMTg0LjAwMmgtLjM3bC0uMTg0LS4wMDItLjE4NC0uMDAzLS4xODItLjAwNC0uMTgyLS4wMDUtLjE4MS0uMDA2LS4xNzktLjAwOC0uMTc5LS4wMDgtLjE3OC0uMDEtLjE3Ni0uMDExLS4xNzYtLjAxMi0uMTc1LS4wMTMtLjE3My0uMDE0LS4xNzItLjAxNS0uMTcxLS4wMTYtLjE3LS4wMTctLjE2OS0uMDE4LS4xNjctLjAxOS0uMTY2LS4wMi0uMTY1LS4wMjEtLjE2My0uMDIyLS4xNjItLjAyMy0uMTYxLS4wMjQtLjE1OS0uMDI1LS4xNTctLjAyNi0uMTU2LS4wMjctLjE1NS0uMDI3LS4xNTMtLjAyOS0uMTUxLS4wMy0uMTUtLjAzLS4xNDgtLjAzMS0uMTQ2LS4wMzItLjE0NS0uMDMzLS4xNDMtLjAzNC0uMTQxLS4wMzUtLjE0LS4wMzUtLjEzNy0uMDM3LS4xMzYtLjAzNy0uMTM0LS4wMzgtLjEzMi0uMDM4LS4xMy0uMDQtLjEyOC0uMDQtLjEyNi0uMDQxLS4xMjQtLjA0Mi0uMTIyLS4wNDItLjEyLS4wNDQtLjExNy0uMDQzLS4xMTYtLjA0NS0uMTEzLS4wNDUtLjExMi0uMDQ2LS4xMDktLjA0Ny0uMTA2LS4wNDctLjEwNS0uMDQ4LS4xMDItLjA0OS0uMS0uMDQ5LS4wOTctLjA1LS4wOTUtLjA1LS4wOTMtLjA1Mi0uMDktLjA1MS0uMDg3LS4wNTItLjA4NS0uMDUzLS4wODMtLjA1NC0uMDgtLjA1NC0uMDc3LS4wNTR2NC4xMjd6bTAtNS42NTR2LjAxMWwuMDAxLjAyMS4wMDMuMDIxLjAwNC4wMjEuMDA1LjAyMi4wMDYuMDIyLjAwNy4wMjIuMDA5LjAyMi4wMS4wMjIuMDExLjAyMy4wMTIuMDIzLjAxMy4wMjMuMDE1LjAyNC4wMTYuMDIzLjAxNy4wMjQuMDE4LjAyNC4wMTkuMDI0LjAyMS4wMjQuMDIyLjAyNC4wMjMuMDI1LjAyNC4wMjQuMDUyLjA1LjA1Ni4wNS4wNjEuMDUuMDY2LjA1MS4wNy4wNTEuMDc1LjA1Mi4wNzkuMDUxLjA4NC4wNTIuMDg4LjA1Mi4wOTIuMDUyLjA5Ny4wNTIuMTAyLjA1Mi4xMDUuMDUyLjExLjA1MS4xMTQuMDUxLjExOS4wNTIuMTIzLjA1LjEyNy4wNTEuMTMxLjA1LjEzNS4wNDkuMTM5LjA0OS4xNDQuMDQ4LjE0Ny4wNDguMTUyLjA0Ny4xNTUuMDQ2LjE2LjA0NS4xNjMuMDQ1LjE2Ny4wNDQuMTcxLjA0Mi4xNzYuMDQyLjE3OC4wNC4xODMuMDQuMTg3LjAzOC4xOS4wMzcuMTk0LjAzNi4xOTcuMDM0LjIwMi4wMzMuMjA0LjAzMi4yMDkuMDMuMjEyLjAyOC4yMTYuMDI3LjIxOS4wMjUuMjIyLjAyNC4yMjYuMDIyLjIzLjAyLjIzMy4wMTguMjM2LjAxNi4yNC4wMTQuMjQzLjAxMi4yNDYuMDEuMjQ5LjAwOC4yNTMuMDA2LjI1Ni4wMDMuMjU5LjAwMS4yNi0uMDAxLjI1Ny0uMDAzLjI1NC0uMDA2LjI1LS4wMDguMjQ3LS4wMS4yNDQtLjAxMi4yNDEtLjAxNS4yMzctLjAxNi4yMzMtLjAxOC4yMzEtLjAyLjIyNi0uMDIyLjIyNC0uMDI0LjIyLS4wMjUuMjE2LS4wMjcuMjEyLS4wMjkuMjEtLjAzLjIwNS0uMDMyLjIwMi0uMDMzLjE5OC0uMDM1LjE5NC0uMDM2LjE5MS0uMDM3LjE4Ny0uMDM5LjE4My0uMDM5LjE3OS0uMDQxLjE3NS0uMDQyLjE3Mi0uMDQzLjE2OC0uMDQ0LjE2My0uMDQ1LjE2LS4wNDUuMTU1LS4wNDcuMTUyLS4wNDcuMTQ4LS4wNDguMTQzLS4wNDguMTM5LS4wNS4xMzYtLjA0OS4xMzEtLjA1LjEyNi0uMDUxLjEyMy0uMDUxLjExOC0uMDUxLjExNC0uMDUyLjExLS4wNTIuMTA2LS4wNTIuMTAxLS4wNTIuMDk2LS4wNTIuMDkyLS4wNTIuMDg4LS4wNTIuMDgzLS4wNTIuMDc5LS4wNTIuMDc0LS4wNTEuMDctLjA1Mi4wNjUtLjA1MS4wNi0uMDUuMDU2LS4wNTEuMDUxLS4wNDkuMDIzLS4wMjUuMDIzLS4wMjQuMDIxLS4wMjUuMDItLjAyNC4wMTktLjAyNC4wMTgtLjAyNC4wMTctLjAyNC4wMTUtLjAyMy4wMTQtLjAyMy4wMTMtLjAyNC4wMTItLjAyMi4wMS0uMDIzLjAxLS4wMjMuMDA4LS4wMjIuMDA2LS4wMjIuMDA2LS4wMjIuMDA0LS4wMjEuMDA0LS4wMjIuMDAxLS4wMjEuMDAxLS4wMjF2LTQuMTM5bC0uMDc3LjA1NC0uMDguMDU0LS4wODMuMDU0LS4wODUuMDUyLS4wODcuMDUzLS4wOS4wNTEtLjA5My4wNTEtLjA5NS4wNTEtLjA5Ny4wNS0uMS4wNDktLjEwMi4wNDktLjEwNS4wNDgtLjEwNi4wNDctLjEwOS4wNDctLjExMS4wNDYtLjExNC4wNDUtLjExNS4wNDQtLjExOC4wNDQtLjEyLjA0NC0uMTIyLjA0Mi0uMTI0LjA0Mi0uMTI2LjA0MS0uMTI4LjA0LS4xMy4wMzktLjEzMi4wMzktLjEzNC4wMzgtLjEzNS4wMzctLjEzOC4wMzYtLjEzOS4wMzYtLjE0Mi4wMzUtLjE0My4wMzMtLjE0NC4wMzMtLjE0Ny4wMzMtLjE0OC4wMzEtLjE1LjAzLS4xNTEuMDMtLjE1My4wMjgtLjE1NC4wMjgtLjE1Ni4wMjctLjE1OC4wMjYtLjE1OS4wMjUtLjE2MS4wMjQtLjE2Mi4wMjMtLjE2My4wMjItLjE2NS4wMjEtLjE2Ni4wMi0uMTY3LjAxOS0uMTY5LjAxOC0uMTY5LjAxNy0uMTcxLjAxNi0uMTczLjAxNS0uMTczLjAxNC0uMTc1LjAxMy0uMTc1LjAxMi0uMTc3LjAxMS0uMTc4LjAwOS0uMTc5LjAwOS0uMTc5LjAwNy0uMTgxLjAwNy0uMTgyLjAwNS0uMTgyLjAwNC0uMTg0LjAwMy0uMTg0LjAwMmgtLjM3bC0uMTg0LS4wMDItLjE4NC0uMDAzLS4xODItLjAwNC0uMTgyLS4wMDUtLjE4MS0uMDA3LS4xNzktLjAwNy0uMTc5LS4wMDktLjE3OC0uMDA5LS4xNzYtLjAxMS0uMTc2LS4wMTItLjE3NS0uMDEzLS4xNzMtLjAxNC0uMTcyLS4wMTUtLjE3MS0uMDE2LS4xNy0uMDE3LS4xNjktLjAxOC0uMTY3LS4wMTktLjE2Ni0uMDItLjE2NS0uMDIxLS4xNjMtLjAyMi0uMTYyLS4wMjMtLjE2MS0uMDI0LS4xNTktLjAyNS0uMTU3LS4wMjYtLjE1Ni0uMDI3LS4xNTUtLjAyOC0uMTUzLS4wMjgtLjE1MS0uMDMtLjE1LS4wMy0uMTQ4LS4wMzEtLjE0Ni0uMDMzLS4xNDUtLjAzMy0uMTQzLS4wMzMtLjE0MS0uMDM1LS4xNC0uMDM2LS4xMzctLjAzNi0uMTM2LS4wMzctLjEzNC0uMDM4LS4xMzItLjAzOS0uMTMtLjAzOS0uMTI4LS4wNC0uMTI2LS4wNDEtLjEyNC0uMDQyLS4xMjItLjA0My0uMTItLjA0My0uMTE3LS4wNDQtLjExNi0uMDQ0LS4xMTMtLjA0Ni0uMTEyLS4wNDYtLjEwOS0uMDQ2LS4xMDYtLjA0Ny0uMTA1LS4wNDgtLjEwMi0uMDQ5LS4xLS4wNDktLjA5Ny0uMDUtLjA5NS0uMDUxLS4wOTMtLjA1MS0uMDktLjA1MS0uMDg3LS4wNTMtLjA4NS0uMDUyLS4wODMtLjA1NC0uMDgtLjA1NC0uMDc3LS4wNTR2NC4xMzl6bTAtNS42NjZ2LjAxMWwuMDAxLjAyLjAwMy4wMjIuMDA0LjAyMS4wMDUuMDIyLjAwNi4wMjEuMDA3LjAyMi4wMDkuMDIzLjAxLjAyMi4wMTEuMDIzLjAxMi4wMjMuMDEzLjAyMy4wMTUuMDIzLjAxNi4wMjQuMDE3LjAyNC4wMTguMDIzLjAxOS4wMjQuMDIxLjAyNS4wMjIuMDI0LjAyMy4wMjQuMDI0LjAyNS4wNTIuMDUuMDU2LjA1LjA2MS4wNS4wNjYuMDUxLjA3LjA1MS4wNzUuMDUyLjA3OS4wNTEuMDg0LjA1Mi4wODguMDUyLjA5Mi4wNTIuMDk3LjA1Mi4xMDIuMDUyLjEwNS4wNTEuMTEuMDUyLjExNC4wNTEuMTE5LjA1MS4xMjMuMDUxLjEyNy4wNS4xMzEuMDUuMTM1LjA1LjEzOS4wNDkuMTQ0LjA0OC4xNDcuMDQ4LjE1Mi4wNDcuMTU1LjA0Ni4xNi4wNDUuMTYzLjA0NS4xNjcuMDQzLjE3MS4wNDMuMTc2LjA0Mi4xNzguMDQuMTgzLjA0LjE4Ny4wMzguMTkuMDM3LjE5NC4wMzYuMTk3LjAzNC4yMDIuMDMzLjIwNC4wMzIuMjA5LjAzLjIxMi4wMjguMjE2LjAyNy4yMTkuMDI1LjIyMi4wMjQuMjI2LjAyMS4yMy4wMi4yMzMuMDE4LjIzNi4wMTcuMjQuMDE0LjI0My4wMTIuMjQ2LjAxLjI0OS4wMDguMjUzLjAwNi4yNTYuMDAzLjI1OS4wMDEuMjYtLjAwMS4yNTctLjAwMy4yNTQtLjAwNi4yNS0uMDA4LjI0Ny0uMDEuMjQ0LS4wMTMuMjQxLS4wMTQuMjM3LS4wMTYuMjMzLS4wMTguMjMxLS4wMi4yMjYtLjAyMi4yMjQtLjAyNC4yMi0uMDI1LjIxNi0uMDI3LjIxMi0uMDI5LjIxLS4wMy4yMDUtLjAzMi4yMDItLjAzMy4xOTgtLjAzNS4xOTQtLjAzNi4xOTEtLjAzNy4xODctLjAzOS4xODMtLjAzOS4xNzktLjA0MS4xNzUtLjA0Mi4xNzItLjA0My4xNjgtLjA0NC4xNjMtLjA0NS4xNi0uMDQ1LjE1NS0uMDQ3LjE1Mi0uMDQ3LjE0OC0uMDQ4LjE0My0uMDQ5LjEzOS0uMDQ5LjEzNi0uMDQ5LjEzMS0uMDUxLjEyNi0uMDUuMTIzLS4wNTEuMTE4LS4wNTIuMTE0LS4wNTEuMTEtLjA1Mi4xMDYtLjA1Mi4xMDEtLjA1Mi4wOTYtLjA1Mi4wOTItLjA1Mi4wODgtLjA1Mi4wODMtLjA1Mi4wNzktLjA1Mi4wNzQtLjA1Mi4wNy0uMDUxLjA2NS0uMDUxLjA2LS4wNTEuMDU2LS4wNS4wNTEtLjA0OS4wMjMtLjAyNS4wMjMtLjAyNS4wMjEtLjAyNC4wMi0uMDI0LjAxOS0uMDI0LjAxOC0uMDI0LjAxNy0uMDI0LjAxNS0uMDIzLjAxNC0uMDI0LjAxMy0uMDIzLjAxMi0uMDIzLjAxLS4wMjIuMDEtLjAyMy4wMDgtLjAyMi4wMDYtLjAyMi4wMDYtLjAyMi4wMDQtLjAyMi4wMDQtLjAyMS4wMDEtLjAyMS4wMDEtLjAyMXYtNC4xNTNsLS4wNzcuMDU0LS4wOC4wNTQtLjA4My4wNTMtLjA4NS4wNTMtLjA4Ny4wNTMtLjA5LjA1MS0uMDkzLjA1MS0uMDk1LjA1MS0uMDk3LjA1LS4xLjA0OS0uMTAyLjA0OC0uMTA1LjA0OC0uMTA2LjA0OC0uMTA5LjA0Ni0uMTExLjA0Ni0uMTE0LjA0Ni0uMTE1LjA0NC0uMTE4LjA0NC0uMTIuMDQzLS4xMjIuMDQzLS4xMjQuMDQyLS4xMjYuMDQxLS4xMjguMDQtLjEzLjAzOS0uMTMyLjAzOS0uMTM0LjAzOC0uMTM1LjAzNy0uMTM4LjAzNi0uMTM5LjAzNi0uMTQyLjAzNC0uMTQzLjAzNC0uMTQ0LjAzMy0uMTQ3LjAzMi0uMTQ4LjAzMi0uMTUuMDMtLjE1MS4wMy0uMTUzLjAyOC0uMTU0LjAyOC0uMTU2LjAyNy0uMTU4LjAyNi0uMTU5LjAyNC0uMTYxLjAyNC0uMTYyLjAyMy0uMTYzLjAyMy0uMTY1LjAyMS0uMTY2LjAyLS4xNjcuMDE5LS4xNjkuMDE4LS4xNjkuMDE3LS4xNzEuMDE2LS4xNzMuMDE1LS4xNzMuMDE0LS4xNzUuMDEzLS4xNzUuMDEyLS4xNzcuMDEtLjE3OC4wMS0uMTc5LjAwOS0uMTc5LjAwNy0uMTgxLjAwNi0uMTgyLjAwNi0uMTgyLjAwNC0uMTg0LjAwMy0uMTg0LjAwMS0uMTg1LjAwMS0uMTg1LS4wMDEtLjE4NC0uMDAxLS4xODQtLjAwMy0uMTgyLS4wMDQtLjE4Mi0uMDA2LS4xODEtLjAwNi0uMTc5LS4wMDctLjE3OS0uMDA5LS4xNzgtLjAxLS4xNzYtLjAxLS4xNzYtLjAxMi0uMTc1LS4wMTMtLjE3My0uMDE0LS4xNzItLjAxNS0uMTcxLS4wMTYtLjE3LS4wMTctLjE2OS0uMDE4LS4xNjctLjAxOS0uMTY2LS4wMi0uMTY1LS4wMjEtLjE2My0uMDIzLS4xNjItLjAyMy0uMTYxLS4wMjQtLjE1OS0uMDI0LS4xNTctLjAyNi0uMTU2LS4wMjctLjE1NS0uMDI4LS4xNTMtLjAyOC0uMTUxLS4wMy0uMTUtLjAzLS4xNDgtLjAzMi0uMTQ2LS4wMzItLjE0NS0uMDMzLS4xNDMtLjAzNC0uMTQxLS4wMzQtLjE0LS4wMzYtLjEzNy0uMDM2LS4xMzYtLjAzNy0uMTM0LS4wMzgtLjEzMi0uMDM5LS4xMy0uMDM5LS4xMjgtLjA0MS0uMTI2LS4wNDEtLjEyNC0uMDQxLS4xMjItLjA0My0uMTItLjA0My0uMTE3LS4wNDQtLjExNi0uMDQ0LS4xMTMtLjA0Ni0uMTEyLS4wNDYtLjEwOS0uMDQ2LS4xMDYtLjA0OC0uMTA1LS4wNDgtLjEwMi0uMDQ4LS4xLS4wNS0uMDk3LS4wNDktLjA5NS0uMDUxLS4wOTMtLjA1MS0uMDktLjA1Mi0uMDg3LS4wNTItLjA4NS0uMDUzLS4wODMtLjA1My0uMDgtLjA1NC0uMDc3LS4wNTR2NC4xNTN6bTguNzQtOC4xNzlsLS4yNTcuMDA0LS4yNTQuMDA1LS4yNS4wMDgtLjI0Ny4wMTEtLjI0NC4wMTItLjI0MS4wMTQtLjIzNy4wMTYtLjIzMy4wMTgtLjIzMS4wMjEtLjIyNi4wMjItLjIyNC4wMjMtLjIyLjAyNi0uMjE2LjAyNy0uMjEyLjAyOC0uMjEuMDMxLS4yMDUuMDMyLS4yMDIuMDMzLS4xOTguMDM0LS4xOTQuMDM2LS4xOTEuMDM4LS4xODcuMDM4LS4xODMuMDQtLjE3OS4wNDEtLjE3NS4wNDItLjE3Mi4wNDMtLjE2OC4wNDMtLjE2My4wNDUtLjE2LjA0Ni0uMTU1LjA0Ni0uMTUyLjA0OC0uMTQ4LjA0OC0uMTQzLjA0OC0uMTM5LjA0OS0uMTM2LjA1LS4xMzEuMDUtLjEyNi4wNTEtLjEyMy4wNTEtLjExOC4wNTEtLjExNC4wNTItLjExLjA1Mi0uMTA2LjA1Mi0uMTAxLjA1Mi0uMDk2LjA1Mi0uMDkyLjA1Mi0uMDg4LjA1Mi0uMDgzLjA1Mi0uMDc5LjA1Mi0uMDc0LjA1MS0uMDcuMDUyLS4wNjUuMDUxLS4wNi4wNS0uMDU2LjA1LS4wNTEuMDUtLjAyMy4wMjUtLjAyMy4wMjQtLjAyMS4wMjQtLjAyLjAyNS0uMDE5LjAyNC0uMDE4LjAyNC0uMDE3LjAyMy0uMDE1LjAyNC0uMDE0LjAyMy0uMDEzLjAyMy0uMDEyLjAyMy0uMDEuMDIzLS4wMS4wMjItLjAwOC4wMjItLjAwNi4wMjMtLjAwNi4wMjEtLjAwNC4wMjItLjAwNC4wMjEtLjAwMS4wMjEtLjAwMS4wMjEuMDAxLjAyMS4wMDEuMDIxLjAwNC4wMjEuMDA0LjAyMi4wMDYuMDIxLjAwNi4wMjMuMDA4LjAyMi4wMS4wMjIuMDEuMDIzLjAxMi4wMjMuMDEzLjAyMy4wMTQuMDIzLjAxNS4wMjQuMDE3LjAyMy4wMTguMDI0LjAxOS4wMjQuMDIuMDI1LjAyMS4wMjQuMDIzLjAyNC4wMjMuMDI1LjA1MS4wNS4wNTYuMDUuMDYuMDUuMDY1LjA1MS4wNy4wNTIuMDc0LjA1MS4wNzkuMDUyLjA4My4wNTIuMDg4LjA1Mi4wOTIuMDUyLjA5Ni4wNTIuMTAxLjA1Mi4xMDYuMDUyLjExLjA1Mi4xMTQuMDUyLjExOC4wNTEuMTIzLjA1MS4xMjYuMDUxLjEzMS4wNS4xMzYuMDUuMTM5LjA0OS4xNDMuMDQ4LjE0OC4wNDguMTUyLjA0OC4xNTUuMDQ2LjE2LjA0Ni4xNjMuMDQ1LjE2OC4wNDMuMTcyLjA0My4xNzUuMDQyLjE3OS4wNDEuMTgzLjA0LjE4Ny4wMzguMTkxLjAzOC4xOTQuMDM2LjE5OC4wMzQuMjAyLjAzMy4yMDUuMDMyLjIxLjAzMS4yMTIuMDI4LjIxNi4wMjcuMjIuMDI2LjIyNC4wMjMuMjI2LjAyMi4yMzEuMDIxLjIzMy4wMTguMjM3LjAxNi4yNDEuMDE0LjI0NC4wMTIuMjQ3LjAxMS4yNS4wMDguMjU0LjAwNS4yNTcuMDA0LjI2LjAwMS4yNi0uMDAxLjI1Ny0uMDA0LjI1NC0uMDA1LjI1LS4wMDguMjQ3LS4wMTEuMjQ0LS4wMTIuMjQxLS4wMTQuMjM3LS4wMTYuMjMzLS4wMTguMjMxLS4wMjEuMjI2LS4wMjIuMjI0LS4wMjMuMjItLjAyNi4yMTYtLjAyNy4yMTItLjAyOC4yMS0uMDMxLjIwNS0uMDMyLjIwMi0uMDMzLjE5OC0uMDM0LjE5NC0uMDM2LjE5MS0uMDM4LjE4Ny0uMDM4LjE4My0uMDQuMTc5LS4wNDEuMTc1LS4wNDIuMTcyLS4wNDMuMTY4LS4wNDMuMTYzLS4wNDUuMTYtLjA0Ni4xNTUtLjA0Ni4xNTItLjA0OC4xNDgtLjA0OC4xNDMtLjA0OC4xMzktLjA0OS4xMzYtLjA1LjEzMS0uMDUuMTI2LS4wNTEuMTIzLS4wNTEuMTE4LS4wNTEuMTE0LS4wNTIuMTEtLjA1Mi4xMDYtLjA1Mi4xMDEtLjA1Mi4wOTYtLjA1Mi4wOTItLjA1Mi4wODgtLjA1Mi4wODMtLjA1Mi4wNzktLjA1Mi4wNzQtLjA1MS4wNy0uMDUyLjA2NS0uMDUxLjA2LS4wNS4wNTYtLjA1LjA1MS0uMDUuMDIzLS4wMjUuMDIzLS4wMjQuMDIxLS4wMjQuMDItLjAyNS4wMTktLjAyNC4wMTgtLjAyNC4wMTctLjAyMy4wMTUtLjAyNC4wMTQtLjAyMy4wMTMtLjAyMy4wMTItLjAyMy4wMS0uMDIzLjAxLS4wMjIuMDA4LS4wMjIuMDA2LS4wMjMuMDA2LS4wMjEuMDA0LS4wMjIuMDA0LS4wMjEuMDAxLS4wMjEuMDAxLS4wMjEtLjAwMS0uMDIxLS4wMDEtLjAyMS0uMDA0LS4wMjEtLjAwNC0uMDIyLS4wMDYtLjAyMS0uMDA2LS4wMjMtLjAwOC0uMDIyLS4wMS0uMDIyLS4wMS0uMDIzLS4wMTItLjAyMy0uMDEzLS4wMjMtLjAxNC0uMDIzLS4wMTUtLjAyNC0uMDE3LS4wMjMtLjAxOC0uMDI0LS4wMTktLjAyNC0uMDItLjAyNS0uMDIxLS4wMjQtLjAyMy0uMDI0LS4wMjMtLjAyNS0uMDUxLS4wNS0uMDU2LS4wNS0uMDYtLjA1LS4wNjUtLjA1MS0uMDctLjA1Mi0uMDc0LS4wNTEtLjA3OS0uMDUyLS4wODMtLjA1Mi0uMDg4LS4wNTItLjA5Mi0uMDUyLS4wOTYtLjA1Mi0uMTAxLS4wNTItLjEwNi0uMDUyLS4xMS0uMDUyLS4xMTQtLjA1Mi0uMTE4LS4wNTEtLjEyMy0uMDUxLS4xMjYtLjA1MS0uMTMxLS4wNS0uMTM2LS4wNS0uMTM5LS4wNDktLjE0My0uMDQ4LS4xNDgtLjA0OC0uMTUyLS4wNDgtLjE1NS0uMDQ2LS4xNi0uMDQ2LS4xNjMtLjA0NS0uMTY4LS4wNDMtLjE3Mi0uMDQzLS4xNzUtLjA0Mi0uMTc5LS4wNDEtLjE4My0uMDQtLjE4Ny0uMDM4LS4xOTEtLjAzOC0uMTk0LS4wMzYtLjE5OC0uMDM0LS4yMDItLjAzMy0uMjA1LS4wMzItLjIxLS4wMzEtLjIxMi0uMDI4LS4yMTYtLjAyNy0uMjItLjAyNi0uMjI0LS4wMjMtLjIyNi0uMDIyLS4yMzEtLjAyMS0uMjMzLS4wMTgtLjIzNy0uMDE2LS4yNDEtLjAxNC0uMjQ0LS4wMTItLjI0Ny0uMDExLS4yNS0uMDA4LS4yNTQtLjAwNS0uMjU3LS4wMDQtLjI2LS4wMDEtLjI2LjAwMXoiIHRyYW5zZm9ybT0ic2NhbGUoLjUpIj48L3BhdGg+PC9zeW1ib2w+PC9kZWZzPjxkZWZzPjxzeW1ib2wgaGVpZ2h0PSIyNCIgd2lkdGg9IjI0IiBpZD0iY2xvY2siPjxwYXRoIGQ9Ik0xMiAyYzUuNTE0IDAgMTAgNC40ODYgMTAgMTBzLTQuNDg2IDEwLTEwIDEwLTEwLTQuNDg2LTEwLTEwIDQuNDg2LTEwIDEwLTEwem0wLTJjLTYuNjI3IDAtMTIgNS4zNzMtMTIgMTJzNS4zNzMgMTIgMTIgMTIgMTItNS4zNzMgMTItMTItNS4zNzMtMTItMTItMTJ6bTUuODQ4IDEyLjQ1OWMuMjAyLjAzOC4yMDIuMzMzLjAwMS4zNzItMS45MDcuMzYxLTYuMDQ1IDEuMTExLTYuNTQ3IDEuMTExLS43MTkgMC0xLjMwMS0uNTgyLTEuMzAxLTEuMzAxIDAtLjUxMi43Ny01LjQ0NyAxLjEyNS03LjQ0NS4wMzQtLjE5Mi4zMTItLjE4MS4zNDMuMDE0bC45ODUgNi4yMzggNS4zOTQgMS4wMTF6IiB0cmFuc2Zvcm09InNjYWxlKC41KSI+PC9wYXRoPjwvc3ltYm9sPjwvZGVmcz48ZGVmcz48bWFya2VyIG9yaWVudD0iYXV0byIgbWFya2VySGVpZ2h0PSIxMiIgbWFya2VyV2lkdGg9IjEyIiBtYXJrZXJVbml0cz0idXNlclNwYWNlT25Vc2UiIHJlZlk9IjUiIHJlZlg9IjcuOSIgaWQ9ImFycm93aGVhZCI+PHBhdGggZD0iTSAwIDAgTCAxMCA1IEwgMCAxMCB6Ij48L3BhdGg+PC9tYXJrZXI+PC9kZWZzPjxkZWZzPjxtYXJrZXIgcmVmWT0iNC41IiByZWZYPSI0IiBvcmllbnQ9ImF1dG8iIG1hcmtlckhlaWdodD0iOCIgbWFya2VyV2lkdGg9IjE1IiBpZD0iY3Jvc3NoZWFkIj48cGF0aCBzdHlsZT0ic3Ryb2tlLWRhc2hhcnJheTogMCwgMDsiIGQ9Ik0gMSwyIEwgNiw3IE0gNiwyIEwgMSw3IiBzdHJva2Utd2lkdGg9IjFwdCIgc3Ryb2tlPSIjMDAwMDAwIiBmaWxsPSJub25lIj48L3BhdGg+PC9tYXJrZXI+PC9kZWZzPjxkZWZzPjxtYXJrZXIgb3JpZW50PSJhdXRvIiBtYXJrZXJIZWlnaHQ9IjI4IiBtYXJrZXJXaWR0aD0iMjAiIHJlZlk9IjciIHJlZlg9IjE1LjUiIGlkPSJmaWxsZWQtaGVhZCI+PHBhdGggZD0iTSAxOCw3IEw5LDEzIEwxNCw3IEw5LDEgWiI+PC9wYXRoPjwvbWFya2VyPjwvZGVmcz48ZGVmcz48bWFya2VyIG9yaWVudD0iYXV0byIgbWFya2VySGVpZ2h0PSI0MCIgbWFya2VyV2lkdGg9IjYwIiByZWZZPSIxNSIgcmVmWD0iMTUiIGlkPSJzZXF1ZW5jZW51bWJlciI+PGNpcmNsZSByPSI2IiBjeT0iMTUiIGN4PSIxNSI+PC9jaXJjbGU+PC9tYXJrZXI+PC9kZWZzPjx0ZXh0IHN0eWxlPSJmb250LXNpemU6IDE2cHg7IGZvbnQtd2VpZ2h0OiA0MDA7IiBkeT0iMWVtIiBjbGFzcz0ibWVzc2FnZVRleHQiIGFsaWdubWVudC1iYXNlbGluZT0ibWlkZGxlIiBkb21pbmFudC1iYXNlbGluZT0ibWlkZGxlIiB0ZXh0LWFuY2hvcj0ibWlkZGxlIiB5PSI4MCIgeD0iMjIzIj5wdWJsaXNoQ3VzdG9tZXJEZXRhaWxzQ2hhbmdlPC90ZXh0PjxsaW5lIHN0eWxlPSJmaWxsOiBub25lOyIgbWFya2VyLXN0YXJ0PSJ1cmwoI3NlcXVlbmNlbnVtYmVyKSIgbWFya2VyLWVuZD0idXJsKCNhcnJvd2hlYWQpIiBzdHJva2U9Im5vbmUiIHN0cm9rZS13aWR0aD0iMiIgY2xhc3M9Im1lc3NhZ2VMaW5lMCIgeTI9IjExMSIgeDI9IjM3MCIgeTE9IjExMSIgeDE9Ijc2Ij48L2xpbmU+PHRleHQgY2xhc3M9InNlcXVlbmNlTnVtYmVyIiB0ZXh0LWFuY2hvcj0ibWlkZGxlIiBmb250LXNpemU9IjEycHgiIGZvbnQtZmFtaWx5PSJzYW5zLXNlcmlmIiB5PSIxMTUiIHg9Ijc2Ij4xPC90ZXh0Pjx0ZXh0IHN0eWxlPSJmb250LXNpemU6IDE2cHg7IGZvbnQtd2VpZ2h0OiA0MDA7IiBkeT0iMWVtIiBjbGFzcz0ibWVzc2FnZVRleHQiIGFsaWdubWVudC1iYXNlbGluZT0ibWlkZGxlIiBkb21pbmFudC1iYXNlbGluZT0ibWlkZGxlIiB0ZXh0LWFuY2hvcj0ibWlkZGxlIiB5PSIxMjYiIHg9IjUyMiI+cHVibGlzaEN1c3RvbWVyRGV0YWlsc0NoYW5nZTwvdGV4dD48bGluZSBzdHlsZT0iZmlsbDogbm9uZTsiIG1hcmtlci1zdGFydD0idXJsKCNzZXF1ZW5jZW51bWJlcikiIG1hcmtlci1lbmQ9InVybCgjYXJyb3doZWFkKSIgc3Ryb2tlPSJub25lIiBzdHJva2Utd2lkdGg9IjIiIGNsYXNzPSJtZXNzYWdlTGluZTAiIHkyPSIxNTciIHgyPSI2NjkiIHkxPSIxNTciIHgxPSIzNzUiPjwvbGluZT48dGV4dCBjbGFzcz0ic2VxdWVuY2VOdW1iZXIiIHRleHQtYW5jaG9yPSJtaWRkbGUiIGZvbnQtc2l6ZT0iMTJweCIgZm9udC1mYW1pbHk9InNhbnMtc2VyaWYiIHk9IjE2MSIgeD0iMzc1Ij4yPC90ZXh0Pjwvc3ZnPg==;labelBackgroundColor=#262626;imageBackground=none;" parent="WWikm3p9Dk6OQMaylpYj-1" vertex="1">
                        <mxGeometry x="40" y="-1040" width="620" height="210" as="geometry"/>
                    </mxCell>
                </UserObject>
                <mxCell id="WWikm3p9Dk6OQMaylpYj-4" value="Components" parent="WWikm3p9Dk6OQMaylpYj-0"/>
            </root>
        </mxGraphModel>
    </diagram>
    <diagram name="05-ucdcs-seq" id="dSJtdwvQ6eTqK7ec36_k">
        <mxGraphModel dx="1254" dy="2416" grid="1" gridSize="10" guides="1" tooltips="1" connect="1" arrows="1" fold="1" page="1" pageScale="1" pageWidth="827" pageHeight="1169" background="none" math="0" shadow="0">
            <root>
                <mxCell id="__SHzucs9X7jMKBV-aBX-0"/>
                <mxCell id="__SHzucs9X7jMKBV-aBX-1" style="" parent="__SHzucs9X7jMKBV-aBX-0"/>
                <mxCell id="LRQOsbQnYWmUBc8_cmAm-0" value="&lt;span style=&quot;color: rgb(0, 0, 0); font-size: 20px; font-weight: 700;&quot;&gt;Update Customer Details Change Status&lt;/span&gt;" style="rounded=1;whiteSpace=wrap;html=1;fillColor=#FFFFFF;verticalAlign=top;arcSize=10;strokeColor=none;strokeWidth=0;" vertex="1" parent="__SHzucs9X7jMKBV-aBX-1">
                    <mxGeometry x="40" y="-1120" width="680" height="260" as="geometry"/>
                </mxCell>
                <UserObject label="" mermaidData="{&#10;  &quot;data&quot;: &quot;%%{init: {'theme': 'forest', 'themeVariables': { 'primaryColor': '#ffcccc', 'edgeLabelBackground':'#ffffee', 'tertiaryColor': '#fff0f0'}}}%%\nsequenceDiagram\nautonumber\n        participant MGV_MS as Member Service\n        participant MGV_ESB as myGov ESB\n        participant MGV as myGov \n        MGV_MS -&gt;&gt; MGV_ESB : updateCustomerDetailsChangeStatus\n        MGV_ESB -&gt;&gt; MGV : updateCustomerDetailsChangeStatus&quot;,&#10;  &quot;config&quot;: {&#10;    &quot;startOnLoad&quot;: false,&#10;    &quot;themeCSS&quot;: &quot;&quot;,&#10;    &quot;theme&quot;: &quot;neutral&quot;,&#10;    &quot;arrowMarkerAbsolute&quot;: false,&#10;    &quot;flowchart&quot;: {&#10;      &quot;diagramPadding&quot;: 8,&#10;      &quot;htmlLabels&quot;: false,&#10;      &quot;nodeSpacing&quot;: 50,&#10;      &quot;rankSpacing&quot;: 50,&#10;      &quot;curve&quot;: &quot;linear&quot;,&#10;      &quot;padding&quot;: 15,&#10;      &quot;useMaxWidth&quot;: true&#10;    },&#10;    &quot;sequence&quot;: {&#10;      &quot;activationWidth&quot;: 10,&#10;      &quot;diagramMarginX&quot;: 50,&#10;      &quot;diagramMarginY&quot;: 10,&#10;      &quot;actorMargin&quot;: 50,&#10;      &quot;width&quot;: 150,&#10;      &quot;height&quot;: 65,&#10;      &quot;boxMargin&quot;: 10,&#10;      &quot;boxTextMargin&quot;: 5,&#10;      &quot;noteMargin&quot;: 10,&#10;      &quot;messageMargin&quot;: 35,&#10;      &quot;messageAlign&quot;: &quot;center&quot;,&#10;      &quot;mirrorActors&quot;: true,&#10;      &quot;bottomMarginAdj&quot;: 1,&#10;      &quot;useMaxWidth&quot;: true,&#10;      &quot;rightAngles&quot;: false,&#10;      &quot;showSequenceNumbers&quot;: false,&#10;      &quot;actorFontSize&quot;: 14,&#10;      &quot;actorFontFamily&quot;: &quot;\&quot;Open-Sans\&quot;, \&quot;sans-serif\&quot;&quot;,&#10;      &quot;actorFontWeight&quot;: 400,&#10;      &quot;noteFontSize&quot;: 14,&#10;      &quot;noteFontFamily&quot;: &quot;\&quot;trebuchet ms\&quot;, verdana, arial&quot;,&#10;      &quot;noteFontWeight&quot;: 400,&#10;      &quot;noteAlign&quot;: &quot;center&quot;,&#10;      &quot;messageFontSize&quot;: 16,&#10;      &quot;messageFontFamily&quot;: &quot;\&quot;trebuchet ms\&quot;, verdana, arial&quot;,&#10;      &quot;messageFontWeight&quot;: 400,&#10;      &quot;wrap&quot;: false,&#10;      &quot;wrapPadding&quot;: 10,&#10;      &quot;labelBoxWidth&quot;: 50,&#10;      &quot;labelBoxHeight&quot;: 20&#10;    },&#10;    &quot;gantt&quot;: {&#10;      &quot;titleTopMargin&quot;: 25,&#10;      &quot;barHeight&quot;: 20,&#10;      &quot;barGap&quot;: 4,&#10;      &quot;topPadding&quot;: 50,&#10;      &quot;leftPadding&quot;: 75,&#10;      &quot;gridLineStartPadding&quot;: 35,&#10;      &quot;fontSize&quot;: 11,&#10;      &quot;fontFamily&quot;: &quot;\&quot;Open-Sans\&quot;, \&quot;sans-serif\&quot;&quot;,&#10;      &quot;numberSectionStyles&quot;: 4,&#10;      &quot;axisFormat&quot;: &quot;%Y-%m-%d&quot;,&#10;      &quot;useMaxWidth&quot;: true&#10;    },&#10;    &quot;journey&quot;: {&#10;      &quot;diagramMarginX&quot;: 50,&#10;      &quot;diagramMarginY&quot;: 10,&#10;      &quot;actorMargin&quot;: 50,&#10;      &quot;width&quot;: 150,&#10;      &quot;height&quot;: 65,&#10;      &quot;boxMargin&quot;: 10,&#10;      &quot;boxTextMargin&quot;: 5,&#10;      &quot;noteMargin&quot;: 10,&#10;      &quot;messageMargin&quot;: 35,&#10;      &quot;messageAlign&quot;: &quot;center&quot;,&#10;      &quot;bottomMarginAdj&quot;: 1,&#10;      &quot;useMaxWidth&quot;: true,&#10;      &quot;rightAngles&quot;: false&#10;    },&#10;    &quot;class&quot;: {&#10;      &quot;arrowMarkerAbsolute&quot;: false,&#10;      &quot;useMaxWidth&quot;: true&#10;    },&#10;    &quot;git&quot;: {&#10;      &quot;arrowMarkerAbsolute&quot;: false,&#10;      &quot;useMaxWidth&quot;: true&#10;    },&#10;    &quot;state&quot;: {&#10;      &quot;dividerMargin&quot;: 10,&#10;      &quot;sizeUnit&quot;: 5,&#10;      &quot;padding&quot;: 8,&#10;      &quot;textHeight&quot;: 10,&#10;      &quot;titleShift&quot;: -15,&#10;      &quot;noteMargin&quot;: 10,&#10;      &quot;forkWidth&quot;: 70,&#10;      &quot;forkHeight&quot;: 7,&#10;      &quot;miniPadding&quot;: 2,&#10;      &quot;fontSizeFactor&quot;: 5.02,&#10;      &quot;fontSize&quot;: 24,&#10;      &quot;labelHeight&quot;: 16,&#10;      &quot;edgeLengthFactor&quot;: &quot;20&quot;,&#10;      &quot;compositTitleSize&quot;: 35,&#10;      &quot;radius&quot;: 5&#10;    },&#10;    &quot;er&quot;: {&#10;      &quot;diagramPadding&quot;: 20,&#10;      &quot;layoutDirection&quot;: &quot;TB&quot;,&#10;      &quot;minEntityWidth&quot;: 100,&#10;      &quot;minEntityHeight&quot;: 75,&#10;      &quot;entityPadding&quot;: 15,&#10;      &quot;stroke&quot;: &quot;grey&quot;,&#10;      &quot;fill&quot;: &quot;honeydew&quot;,&#10;      &quot;fontSize&quot;: 12,&#10;      &quot;useMaxWidth&quot;: true&#10;    },&#10;    &quot;pie&quot;: {&#10;      &quot;useMaxWidth&quot;: true&#10;    }&#10;  }&#10;}" id="DWa4Mo6oMmsUo-8-E8lK-0">
                    <mxCell style="shape=image;noLabel=1;verticalAlign=top;imageAspect=1;image=data:image/svg+xml,PHN2ZyBpZD0iZ2VNZXJtYWlkT3V0cHV0LTE2Njc0NDc4NDQxNjYiIHdpZHRoPSIxMDAlIiB4bWxucz0iaHR0cDovL3d3dy53My5vcmcvMjAwMC9zdmciIGhlaWdodD0iMjU3IiBzdHlsZT0ibWF4LXdpZHRoOiA5MThweDsiIHZpZXdCb3g9Ii01MCAtMTAgOTE4IDI1NyI+PHN0eWxlPiNnZU1lcm1haWRPdXRwdXQtMTY2NzQ0Nzg0NDE2Nntmb250LWZhbWlseToidHJlYnVjaGV0IG1zIix2ZXJkYW5hLGFyaWFsLHNhbnMtc2VyaWY7Zm9udC1zaXplOjE2cHg7ZmlsbDojMDAwMDAwO30jZ2VNZXJtYWlkT3V0cHV0LTE2Njc0NDc4NDQxNjYgLmVycm9yLWljb257ZmlsbDojNTUyMjIyO30jZ2VNZXJtYWlkT3V0cHV0LTE2Njc0NDc4NDQxNjYgLmVycm9yLXRleHR7ZmlsbDojNTUyMjIyO3N0cm9rZTojNTUyMjIyO30jZ2VNZXJtYWlkT3V0cHV0LTE2Njc0NDc4NDQxNjYgLmVkZ2UtdGhpY2tuZXNzLW5vcm1hbHtzdHJva2Utd2lkdGg6MnB4O30jZ2VNZXJtYWlkT3V0cHV0LTE2Njc0NDc4NDQxNjYgLmVkZ2UtdGhpY2tuZXNzLXRoaWNre3N0cm9rZS13aWR0aDozLjVweDt9I2dlTWVybWFpZE91dHB1dC0xNjY3NDQ3ODQ0MTY2IC5lZGdlLXBhdHRlcm4tc29saWR7c3Ryb2tlLWRhc2hhcnJheTowO30jZ2VNZXJtYWlkT3V0cHV0LTE2Njc0NDc4NDQxNjYgLmVkZ2UtcGF0dGVybi1kYXNoZWR7c3Ryb2tlLWRhc2hhcnJheTozO30jZ2VNZXJtYWlkT3V0cHV0LTE2Njc0NDc4NDQxNjYgLmVkZ2UtcGF0dGVybi1kb3R0ZWR7c3Ryb2tlLWRhc2hhcnJheToyO30jZ2VNZXJtYWlkT3V0cHV0LTE2Njc0NDc4NDQxNjYgLm1hcmtlcntmaWxsOiMwMDAwMDA7c3Ryb2tlOiMwMDAwMDA7fSNnZU1lcm1haWRPdXRwdXQtMTY2NzQ0Nzg0NDE2NiAubWFya2VyLmNyb3Nze3N0cm9rZTojMDAwMDAwO30jZ2VNZXJtYWlkT3V0cHV0LTE2Njc0NDc4NDQxNjYgc3Zne2ZvbnQtZmFtaWx5OiJ0cmVidWNoZXQgbXMiLHZlcmRhbmEsYXJpYWwsc2Fucy1zZXJpZjtmb250LXNpemU6MTZweDt9I2dlTWVybWFpZE91dHB1dC0xNjY3NDQ3ODQ0MTY2IC5hY3RvcntzdHJva2U6aHNsKDc4LjE1Nzg5NDczNjgsNTguNDYxNTM4NDYxNSUsNTQuNTA5ODAzOTIxNiUpO2ZpbGw6I2NkZTQ5ODt9I2dlTWVybWFpZE91dHB1dC0xNjY3NDQ3ODQ0MTY2IHRleHQuYWN0b3IgPiB0c3BhbntmaWxsOmJsYWNrO3N0cm9rZTpub25lO30jZ2VNZXJtYWlkT3V0cHV0LTE2Njc0NDc4NDQxNjYgLmFjdG9yLWxpbmV7c3Ryb2tlOmdyZXk7fSNnZU1lcm1haWRPdXRwdXQtMTY2NzQ0Nzg0NDE2NiAubWVzc2FnZUxpbmUwe3N0cm9rZS13aWR0aDoxLjU7c3Ryb2tlLWRhc2hhcnJheTpub25lO3N0cm9rZTojMzMzO30jZ2VNZXJtYWlkT3V0cHV0LTE2Njc0NDc4NDQxNjYgLm1lc3NhZ2VMaW5lMXtzdHJva2Utd2lkdGg6MS41O3N0cm9rZS1kYXNoYXJyYXk6MiwyO3N0cm9rZTojMzMzO30jZ2VNZXJtYWlkT3V0cHV0LTE2Njc0NDc4NDQxNjYgI2Fycm93aGVhZCBwYXRoe2ZpbGw6IzMzMztzdHJva2U6IzMzMzt9I2dlTWVybWFpZE91dHB1dC0xNjY3NDQ3ODQ0MTY2IC5zZXF1ZW5jZU51bWJlcntmaWxsOndoaXRlO30jZ2VNZXJtYWlkT3V0cHV0LTE2Njc0NDc4NDQxNjYgI3NlcXVlbmNlbnVtYmVye2ZpbGw6IzMzMzt9I2dlTWVybWFpZE91dHB1dC0xNjY3NDQ3ODQ0MTY2ICNjcm9zc2hlYWQgcGF0aHtmaWxsOiMzMzM7c3Ryb2tlOiMzMzM7fSNnZU1lcm1haWRPdXRwdXQtMTY2NzQ0Nzg0NDE2NiAubWVzc2FnZVRleHR7ZmlsbDojMzMzO3N0cm9rZTojMzMzO30jZ2VNZXJtYWlkT3V0cHV0LTE2Njc0NDc4NDQxNjYgLmxhYmVsQm94e3N0cm9rZTojMzI2OTMyO2ZpbGw6I2NkZTQ5ODt9I2dlTWVybWFpZE91dHB1dC0xNjY3NDQ3ODQ0MTY2IC5sYWJlbFRleHQsI2dlTWVybWFpZE91dHB1dC0xNjY3NDQ3ODQ0MTY2IC5sYWJlbFRleHQgPiB0c3BhbntmaWxsOmJsYWNrO3N0cm9rZTpub25lO30jZ2VNZXJtYWlkT3V0cHV0LTE2Njc0NDc4NDQxNjYgLmxvb3BUZXh0LCNnZU1lcm1haWRPdXRwdXQtMTY2NzQ0Nzg0NDE2NiAubG9vcFRleHQgPiB0c3BhbntmaWxsOmJsYWNrO3N0cm9rZTpub25lO30jZ2VNZXJtYWlkT3V0cHV0LTE2Njc0NDc4NDQxNjYgLmxvb3BMaW5le3N0cm9rZS13aWR0aDoycHg7c3Ryb2tlLWRhc2hhcnJheToyLDI7c3Ryb2tlOiMzMjY5MzI7ZmlsbDojMzI2OTMyO30jZ2VNZXJtYWlkT3V0cHV0LTE2Njc0NDc4NDQxNjYgLm5vdGV7c3Ryb2tlOiM2ZWFhNDk7ZmlsbDojZmZmNWFkO30jZ2VNZXJtYWlkT3V0cHV0LTE2Njc0NDc4NDQxNjYgLm5vdGVUZXh0LCNnZU1lcm1haWRPdXRwdXQtMTY2NzQ0Nzg0NDE2NiAubm90ZVRleHQgPiB0c3BhbntmaWxsOmJsYWNrO3N0cm9rZTpub25lO30jZ2VNZXJtYWlkT3V0cHV0LTE2Njc0NDc4NDQxNjYgLmFjdGl2YXRpb24we2ZpbGw6I2Y0ZjRmNDtzdHJva2U6IzY2Njt9I2dlTWVybWFpZE91dHB1dC0xNjY3NDQ3ODQ0MTY2IC5hY3RpdmF0aW9uMXtmaWxsOiNmNGY0ZjQ7c3Ryb2tlOiM2NjY7fSNnZU1lcm1haWRPdXRwdXQtMTY2NzQ0Nzg0NDE2NiAuYWN0aXZhdGlvbjJ7ZmlsbDojZjRmNGY0O3N0cm9rZTojNjY2O30jZ2VNZXJtYWlkT3V0cHV0LTE2Njc0NDc4NDQxNjY6cm9vdHstLW1lcm1haWQtZm9udC1mYW1pbHk6InRyZWJ1Y2hldCBtcyIsdmVyZGFuYSxhcmlhbCxzYW5zLXNlcmlmO308L3N0eWxlPjxnPjwvZz48Zz48bGluZSBpZD0iYWN0b3IwIiB4MT0iNzUiIHkxPSI1IiB4Mj0iNzUiIHkyPSIyNDYiIGNsYXNzPSJhY3Rvci1saW5lIiBzdHJva2Utd2lkdGg9IjAuNXB4IiBzdHJva2U9IiM5OTkiPjwvbGluZT48cmVjdCB4PSIwIiB5PSIwIiBmaWxsPSIjZWFlYWVhIiBzdHJva2U9IiM2NjYiIHdpZHRoPSIxNTAiIGhlaWdodD0iNjUiIHJ4PSIzIiByeT0iMyIgY2xhc3M9ImFjdG9yIj48L3JlY3Q+PHRleHQgeD0iNzUiIHk9IjMyLjUiIGRvbWluYW50LWJhc2VsaW5lPSJjZW50cmFsIiBhbGlnbm1lbnQtYmFzZWxpbmU9ImNlbnRyYWwiIGNsYXNzPSJhY3RvciIgc3R5bGU9InRleHQtYW5jaG9yOiBtaWRkbGU7IGZvbnQtc2l6ZTogMTRweDsgZm9udC13ZWlnaHQ6IDQwMDsgZm9udC1mYW1pbHk6IE9wZW4tU2FucywgJnF1b3Q7c2Fucy1zZXJpZiZxdW90OzsiPjx0c3BhbiB4PSI3NSIgZHk9IjAiPk1lbWJlciBTZXJ2aWNlPC90c3Bhbj48L3RleHQ+PC9nPjxnPjxsaW5lIGlkPSJhY3RvcjEiIHgxPSI0MDkiIHkxPSI1IiB4Mj0iNDA5IiB5Mj0iMjQ2IiBjbGFzcz0iYWN0b3ItbGluZSIgc3Ryb2tlLXdpZHRoPSIwLjVweCIgc3Ryb2tlPSIjOTk5Ij48L2xpbmU+PHJlY3QgeD0iMzM0IiB5PSIwIiBmaWxsPSIjZWFlYWVhIiBzdHJva2U9IiM2NjYiIHdpZHRoPSIxNTAiIGhlaWdodD0iNjUiIHJ4PSIzIiByeT0iMyIgY2xhc3M9ImFjdG9yIj48L3JlY3Q+PHRleHQgeD0iNDA5IiB5PSIzMi41IiBkb21pbmFudC1iYXNlbGluZT0iY2VudHJhbCIgYWxpZ25tZW50LWJhc2VsaW5lPSJjZW50cmFsIiBjbGFzcz0iYWN0b3IiIHN0eWxlPSJ0ZXh0LWFuY2hvcjogbWlkZGxlOyBmb250LXNpemU6IDE0cHg7IGZvbnQtd2VpZ2h0OiA0MDA7IGZvbnQtZmFtaWx5OiBPcGVuLVNhbnMsICZxdW90O3NhbnMtc2VyaWYmcXVvdDs7Ij48dHNwYW4geD0iNDA5IiBkeT0iMCI+bXlHb3YgRVNCPC90c3Bhbj48L3RleHQ+PC9nPjxnPjxsaW5lIGlkPSJhY3RvcjIiIHgxPSI3NDMiIHkxPSI1IiB4Mj0iNzQzIiB5Mj0iMjQ2IiBjbGFzcz0iYWN0b3ItbGluZSIgc3Ryb2tlLXdpZHRoPSIwLjVweCIgc3Ryb2tlPSIjOTk5Ij48L2xpbmU+PHJlY3QgeD0iNjY4IiB5PSIwIiBmaWxsPSIjZWFlYWVhIiBzdHJva2U9IiM2NjYiIHdpZHRoPSIxNTAiIGhlaWdodD0iNjUiIHJ4PSIzIiByeT0iMyIgY2xhc3M9ImFjdG9yIj48L3JlY3Q+PHRleHQgeD0iNzQzIiB5PSIzMi41IiBkb21pbmFudC1iYXNlbGluZT0iY2VudHJhbCIgYWxpZ25tZW50LWJhc2VsaW5lPSJjZW50cmFsIiBjbGFzcz0iYWN0b3IiIHN0eWxlPSJ0ZXh0LWFuY2hvcjogbWlkZGxlOyBmb250LXNpemU6IDE0cHg7IGZvbnQtd2VpZ2h0OiA0MDA7IGZvbnQtZmFtaWx5OiBPcGVuLVNhbnMsICZxdW90O3NhbnMtc2VyaWYmcXVvdDs7Ij48dHNwYW4geD0iNzQzIiBkeT0iMCI+bXlHb3Y8L3RzcGFuPjwvdGV4dD48L2c+PGRlZnM+PG1hcmtlciBpZD0iYXJyb3doZWFkIiByZWZYPSI5IiByZWZZPSI1IiBtYXJrZXJVbml0cz0idXNlclNwYWNlT25Vc2UiIG1hcmtlcldpZHRoPSIxMiIgbWFya2VySGVpZ2h0PSIxMiIgb3JpZW50PSJhdXRvIj48cGF0aCBkPSJNIDAgMCBMIDEwIDUgTCAwIDEwIHoiPjwvcGF0aD48L21hcmtlcj48L2RlZnM+PGRlZnM+PG1hcmtlciBpZD0iY3Jvc3NoZWFkIiBtYXJrZXJXaWR0aD0iMTUiIG1hcmtlckhlaWdodD0iOCIgb3JpZW50PSJhdXRvIiByZWZYPSIxNiIgcmVmWT0iNCI+PHBhdGggZmlsbD0iYmxhY2siIHN0cm9rZT0iIzAwMDAwMCIgc3Ryb2tlLXdpZHRoPSIxcHgiIGQ9Ik0gOSwyIFYgNiBMMTYsNCBaIiBzdHlsZT0ic3Ryb2tlLWRhc2hhcnJheTogMCwgMDsiPjwvcGF0aD48cGF0aCBmaWxsPSJub25lIiBzdHJva2U9IiMwMDAwMDAiIHN0cm9rZS13aWR0aD0iMXB4IiBkPSJNIDAsMSBMIDYsNyBNIDYsMSBMIDAsNyIgc3R5bGU9InN0cm9rZS1kYXNoYXJyYXk6IDAsIDA7Ij48L3BhdGg+PC9tYXJrZXI+PC9kZWZzPjxkZWZzPjxtYXJrZXIgaWQ9ImZpbGxlZC1oZWFkIiByZWZYPSIxOCIgcmVmWT0iNyIgbWFya2VyV2lkdGg9IjIwIiBtYXJrZXJIZWlnaHQ9IjI4IiBvcmllbnQ9ImF1dG8iPjxwYXRoIGQ9Ik0gMTgsNyBMOSwxMyBMMTQsNyBMOSwxIFoiPjwvcGF0aD48L21hcmtlcj48L2RlZnM+PGRlZnM+PG1hcmtlciBpZD0ic2VxdWVuY2VudW1iZXIiIHJlZlg9IjE1IiByZWZZPSIxNSIgbWFya2VyV2lkdGg9IjYwIiBtYXJrZXJIZWlnaHQ9IjQwIiBvcmllbnQ9ImF1dG8iPjxjaXJjbGUgY3g9IjE1IiBjeT0iMTUiIHI9IjYiPjwvY2lyY2xlPjwvbWFya2VyPjwvZGVmcz48dGV4dCB4PSIyNDIiIHk9IjgwIiB0ZXh0LWFuY2hvcj0ibWlkZGxlIiBkb21pbmFudC1iYXNlbGluZT0ibWlkZGxlIiBhbGlnbm1lbnQtYmFzZWxpbmU9Im1pZGRsZSIgY2xhc3M9Im1lc3NhZ2VUZXh0IiBkeT0iMWVtIiBzdHlsZT0iZm9udC1mYW1pbHk6ICZxdW90O3RyZWJ1Y2hldCBtcyZxdW90OywgdmVyZGFuYSwgYXJpYWw7IGZvbnQtc2l6ZTogMTZweDsgZm9udC13ZWlnaHQ6IDQwMDsiPnVwZGF0ZUN1c3RvbWVyRGV0YWlsc0NoYW5nZVN0YXR1czwvdGV4dD48bGluZSB4MT0iNzUiIHkxPSIxMTMiIHgyPSI0MDkiIHkyPSIxMTMiIGNsYXNzPSJtZXNzYWdlTGluZTAiIHN0cm9rZS13aWR0aD0iMiIgc3Ryb2tlPSJub25lIiBtYXJrZXItZW5kPSJ1cmwoI2Fycm93aGVhZCkiIG1hcmtlci1zdGFydD0idXJsKCNzZXF1ZW5jZW51bWJlcikiIHN0eWxlPSJmaWxsOiBub25lOyI+PC9saW5lPjx0ZXh0IHg9Ijc1IiB5PSIxMTciIGZvbnQtZmFtaWx5PSJzYW5zLXNlcmlmIiBmb250LXNpemU9IjEycHgiIHRleHQtYW5jaG9yPSJtaWRkbGUiIHRleHRMZW5ndGg9IjE2cHgiIGNsYXNzPSJzZXF1ZW5jZU51bWJlciI+MTwvdGV4dD48dGV4dCB4PSI1NzYiIHk9IjEyOCIgdGV4dC1hbmNob3I9Im1pZGRsZSIgZG9taW5hbnQtYmFzZWxpbmU9Im1pZGRsZSIgYWxpZ25tZW50LWJhc2VsaW5lPSJtaWRkbGUiIGNsYXNzPSJtZXNzYWdlVGV4dCIgZHk9IjFlbSIgc3R5bGU9ImZvbnQtZmFtaWx5OiAmcXVvdDt0cmVidWNoZXQgbXMmcXVvdDssIHZlcmRhbmEsIGFyaWFsOyBmb250LXNpemU6IDE2cHg7IGZvbnQtd2VpZ2h0OiA0MDA7Ij51cGRhdGVDdXN0b21lckRldGFpbHNDaGFuZ2VTdGF0dXM8L3RleHQ+PGxpbmUgeDE9IjQwOSIgeTE9IjE2MSIgeDI9Ijc0MyIgeTI9IjE2MSIgY2xhc3M9Im1lc3NhZ2VMaW5lMCIgc3Ryb2tlLXdpZHRoPSIyIiBzdHJva2U9Im5vbmUiIG1hcmtlci1lbmQ9InVybCgjYXJyb3doZWFkKSIgbWFya2VyLXN0YXJ0PSJ1cmwoI3NlcXVlbmNlbnVtYmVyKSIgc3R5bGU9ImZpbGw6IG5vbmU7Ij48L2xpbmU+PHRleHQgeD0iNDA5IiB5PSIxNjUiIGZvbnQtZmFtaWx5PSJzYW5zLXNlcmlmIiBmb250LXNpemU9IjEycHgiIHRleHQtYW5jaG9yPSJtaWRkbGUiIHRleHRMZW5ndGg9IjE2cHgiIGNsYXNzPSJzZXF1ZW5jZU51bWJlciI+MjwvdGV4dD48Zz48cmVjdCB4PSIwIiB5PSIxODEiIGZpbGw9IiNlYWVhZWEiIHN0cm9rZT0iIzY2NiIgd2lkdGg9IjE1MCIgaGVpZ2h0PSI2NSIgcng9IjMiIHJ5PSIzIiBjbGFzcz0iYWN0b3IiPjwvcmVjdD48dGV4dCB4PSI3NSIgeT0iMjEzLjUiIGRvbWluYW50LWJhc2VsaW5lPSJjZW50cmFsIiBhbGlnbm1lbnQtYmFzZWxpbmU9ImNlbnRyYWwiIGNsYXNzPSJhY3RvciIgc3R5bGU9InRleHQtYW5jaG9yOiBtaWRkbGU7IGZvbnQtc2l6ZTogMTRweDsgZm9udC13ZWlnaHQ6IDQwMDsgZm9udC1mYW1pbHk6IE9wZW4tU2FucywgJnF1b3Q7c2Fucy1zZXJpZiZxdW90OzsiPjx0c3BhbiB4PSI3NSIgZHk9IjAiPk1lbWJlciBTZXJ2aWNlPC90c3Bhbj48L3RleHQ+PC9nPjxnPjxyZWN0IHg9IjMzNCIgeT0iMTgxIiBmaWxsPSIjZWFlYWVhIiBzdHJva2U9IiM2NjYiIHdpZHRoPSIxNTAiIGhlaWdodD0iNjUiIHJ4PSIzIiByeT0iMyIgY2xhc3M9ImFjdG9yIj48L3JlY3Q+PHRleHQgeD0iNDA5IiB5PSIyMTMuNSIgZG9taW5hbnQtYmFzZWxpbmU9ImNlbnRyYWwiIGFsaWdubWVudC1iYXNlbGluZT0iY2VudHJhbCIgY2xhc3M9ImFjdG9yIiBzdHlsZT0idGV4dC1hbmNob3I6IG1pZGRsZTsgZm9udC1zaXplOiAxNHB4OyBmb250LXdlaWdodDogNDAwOyBmb250LWZhbWlseTogT3Blbi1TYW5zLCAmcXVvdDtzYW5zLXNlcmlmJnF1b3Q7OyI+PHRzcGFuIHg9IjQwOSIgZHk9IjAiPm15R292IEVTQjwvdHNwYW4+PC90ZXh0PjwvZz48Zz48cmVjdCB4PSI2NjgiIHk9IjE4MSIgZmlsbD0iI2VhZWFlYSIgc3Ryb2tlPSIjNjY2IiB3aWR0aD0iMTUwIiBoZWlnaHQ9IjY1IiByeD0iMyIgcnk9IjMiIGNsYXNzPSJhY3RvciI+PC9yZWN0Pjx0ZXh0IHg9Ijc0MyIgeT0iMjEzLjUiIGRvbWluYW50LWJhc2VsaW5lPSJjZW50cmFsIiBhbGlnbm1lbnQtYmFzZWxpbmU9ImNlbnRyYWwiIGNsYXNzPSJhY3RvciIgc3R5bGU9InRleHQtYW5jaG9yOiBtaWRkbGU7IGZvbnQtc2l6ZTogMTRweDsgZm9udC13ZWlnaHQ6IDQwMDsgZm9udC1mYW1pbHk6IE9wZW4tU2FucywgJnF1b3Q7c2Fucy1zZXJpZiZxdW90OzsiPjx0c3BhbiB4PSI3NDMiIGR5PSIwIj5teUdvdjwvdHNwYW4+PC90ZXh0PjwvZz48L3N2Zz4=;" parent="__SHzucs9X7jMKBV-aBX-1" vertex="1">
                        <mxGeometry x="40" y="-1070" width="680" height="200" as="geometry"/>
                    </mxCell>
                </UserObject>
                <mxCell id="__SHzucs9X7jMKBV-aBX-4" value="Components" parent="__SHzucs9X7jMKBV-aBX-0"/>
            </root>
        </mxGraphModel>
    </diagram>
    <diagram name="04-ncdc-seq" id="MFzOh7rq-eMNbATakR1j">
        <mxGraphModel grid="1" page="1" gridSize="10" guides="1" tooltips="1" connect="1" arrows="1" fold="1" pageScale="1" pageWidth="827" pageHeight="1169" background="none" math="0" shadow="0">
            <root>
                <mxCell id="c5cotqBrzGGHtI7Cecja-0"/>
                <mxCell id="c5cotqBrzGGHtI7Cecja-1" style="" parent="c5cotqBrzGGHtI7Cecja-0"/>
                <mxCell id="l8_tSVCTonMTciSwf3cz-0" value="&lt;span style=&quot;color: rgb(0, 0, 0); font-size: 20px; font-weight: 700;&quot;&gt;Notify Customer Details Change&lt;/span&gt;" style="rounded=1;whiteSpace=wrap;html=1;fillColor=#FFFFFF;verticalAlign=top;arcSize=10;strokeColor=none;strokeWidth=0;" vertex="1" parent="c5cotqBrzGGHtI7Cecja-1">
                    <mxGeometry x="40" y="-1120" width="680" height="260" as="geometry"/>
                </mxCell>
                <UserObject label="" mermaidData="{&#10;  &quot;data&quot;: &quot;%%{init: {'theme': 'forest', 'themeVariables': { 'primaryColor': '#ffcccc', 'edgeLabelBackground':'#ffffee', 'tertiaryColor': '#fff0f0'}}}%%\nsequenceDiagram\nautonumber\n        participant MGV_CUST as myGov Customer\n        participant MGV as myGov \n        participant MGV_ESB as myGov ESB\n        participant MGV_MS as Member Service\n\n        MGV_CUST -&gt;&gt; MGV : Initiate Customer Details change Event\n        MGV -&gt;&gt; MGV_ESB : notifyCustomerDetailsChange\n        MGV_ESB -&gt;&gt; MGV_MS : notifyCustomerDetailsChange\n&quot;,&#10;  &quot;config&quot;: {&#10;    &quot;startOnLoad&quot;: false,&#10;    &quot;themeCSS&quot;: &quot;&quot;,&#10;    &quot;theme&quot;: &quot;neutral&quot;,&#10;    &quot;arrowMarkerAbsolute&quot;: false,&#10;    &quot;flowchart&quot;: {&#10;      &quot;diagramPadding&quot;: 8,&#10;      &quot;htmlLabels&quot;: false,&#10;      &quot;nodeSpacing&quot;: 50,&#10;      &quot;rankSpacing&quot;: 50,&#10;      &quot;curve&quot;: &quot;linear&quot;,&#10;      &quot;padding&quot;: 15,&#10;      &quot;useMaxWidth&quot;: true&#10;    },&#10;    &quot;sequence&quot;: {&#10;      &quot;activationWidth&quot;: 10,&#10;      &quot;diagramMarginX&quot;: 50,&#10;      &quot;diagramMarginY&quot;: 10,&#10;      &quot;actorMargin&quot;: 50,&#10;      &quot;width&quot;: 150,&#10;      &quot;height&quot;: 65,&#10;      &quot;boxMargin&quot;: 10,&#10;      &quot;boxTextMargin&quot;: 5,&#10;      &quot;noteMargin&quot;: 10,&#10;      &quot;messageMargin&quot;: 35,&#10;      &quot;messageAlign&quot;: &quot;center&quot;,&#10;      &quot;mirrorActors&quot;: true,&#10;      &quot;bottomMarginAdj&quot;: 1,&#10;      &quot;useMaxWidth&quot;: true,&#10;      &quot;rightAngles&quot;: false,&#10;      &quot;showSequenceNumbers&quot;: false,&#10;      &quot;actorFontSize&quot;: 14,&#10;      &quot;actorFontFamily&quot;: &quot;\&quot;Open-Sans\&quot;, \&quot;sans-serif\&quot;&quot;,&#10;      &quot;actorFontWeight&quot;: 400,&#10;      &quot;noteFontSize&quot;: 14,&#10;      &quot;noteFontFamily&quot;: &quot;\&quot;trebuchet ms\&quot;, verdana, arial&quot;,&#10;      &quot;noteFontWeight&quot;: 400,&#10;      &quot;noteAlign&quot;: &quot;center&quot;,&#10;      &quot;messageFontSize&quot;: 16,&#10;      &quot;messageFontFamily&quot;: &quot;\&quot;trebuchet ms\&quot;, verdana, arial&quot;,&#10;      &quot;messageFontWeight&quot;: 400,&#10;      &quot;wrap&quot;: false,&#10;      &quot;wrapPadding&quot;: 10,&#10;      &quot;labelBoxWidth&quot;: 50,&#10;      &quot;labelBoxHeight&quot;: 20&#10;    },&#10;    &quot;gantt&quot;: {&#10;      &quot;titleTopMargin&quot;: 25,&#10;      &quot;barHeight&quot;: 20,&#10;      &quot;barGap&quot;: 4,&#10;      &quot;topPadding&quot;: 50,&#10;      &quot;leftPadding&quot;: 75,&#10;      &quot;gridLineStartPadding&quot;: 35,&#10;      &quot;fontSize&quot;: 11,&#10;      &quot;fontFamily&quot;: &quot;\&quot;Open-Sans\&quot;, \&quot;sans-serif\&quot;&quot;,&#10;      &quot;numberSectionStyles&quot;: 4,&#10;      &quot;axisFormat&quot;: &quot;%Y-%m-%d&quot;,&#10;      &quot;useMaxWidth&quot;: true&#10;    },&#10;    &quot;journey&quot;: {&#10;      &quot;diagramMarginX&quot;: 50,&#10;      &quot;diagramMarginY&quot;: 10,&#10;      &quot;actorMargin&quot;: 50,&#10;      &quot;width&quot;: 150,&#10;      &quot;height&quot;: 65,&#10;      &quot;boxMargin&quot;: 10,&#10;      &quot;boxTextMargin&quot;: 5,&#10;      &quot;noteMargin&quot;: 10,&#10;      &quot;messageMargin&quot;: 35,&#10;      &quot;messageAlign&quot;: &quot;center&quot;,&#10;      &quot;bottomMarginAdj&quot;: 1,&#10;      &quot;useMaxWidth&quot;: true,&#10;      &quot;rightAngles&quot;: false&#10;    },&#10;    &quot;class&quot;: {&#10;      &quot;arrowMarkerAbsolute&quot;: false,&#10;      &quot;useMaxWidth&quot;: true&#10;    },&#10;    &quot;git&quot;: {&#10;      &quot;arrowMarkerAbsolute&quot;: false,&#10;      &quot;useMaxWidth&quot;: true&#10;    },&#10;    &quot;state&quot;: {&#10;      &quot;dividerMargin&quot;: 10,&#10;      &quot;sizeUnit&quot;: 5,&#10;      &quot;padding&quot;: 8,&#10;      &quot;textHeight&quot;: 10,&#10;      &quot;titleShift&quot;: -15,&#10;      &quot;noteMargin&quot;: 10,&#10;      &quot;forkWidth&quot;: 70,&#10;      &quot;forkHeight&quot;: 7,&#10;      &quot;miniPadding&quot;: 2,&#10;      &quot;fontSizeFactor&quot;: 5.02,&#10;      &quot;fontSize&quot;: 24,&#10;      &quot;labelHeight&quot;: 16,&#10;      &quot;edgeLengthFactor&quot;: &quot;20&quot;,&#10;      &quot;compositTitleSize&quot;: 35,&#10;      &quot;radius&quot;: 5&#10;    },&#10;    &quot;er&quot;: {&#10;      &quot;diagramPadding&quot;: 20,&#10;      &quot;layoutDirection&quot;: &quot;TB&quot;,&#10;      &quot;minEntityWidth&quot;: 100,&#10;      &quot;minEntityHeight&quot;: 75,&#10;      &quot;entityPadding&quot;: 15,&#10;      &quot;stroke&quot;: &quot;grey&quot;,&#10;      &quot;fill&quot;: &quot;honeydew&quot;,&#10;      &quot;fontSize&quot;: 12,&#10;      &quot;useMaxWidth&quot;: true&#10;    },&#10;    &quot;pie&quot;: {&#10;      &quot;useMaxWidth&quot;: true&#10;    }&#10;  }&#10;}" id="DV1Ox879N3dJf5BpbRQu-0">
                    <mxCell style="shape=image;noLabel=1;verticalAlign=top;imageAspect=1;image=data:image/svg+xml,PHN2ZyBpZD0iZ2VNZXJtYWlkT3V0cHV0LTE2Njc0NDc4ODYwNDMiIHdpZHRoPSIxMDAlIiB4bWxucz0iaHR0cDovL3d3dy53My5vcmcvMjAwMC9zdmciIGhlaWdodD0iMzA1IiBzdHlsZT0ibWF4LXdpZHRoOiAxMTY0cHg7IiB2aWV3Qm94PSItNTAgLTEwIDExNjQgMzA1Ij48c3R5bGU+I2dlTWVybWFpZE91dHB1dC0xNjY3NDQ3ODg2MDQze2ZvbnQtZmFtaWx5OiJ0cmVidWNoZXQgbXMiLHZlcmRhbmEsYXJpYWwsc2Fucy1zZXJpZjtmb250LXNpemU6MTZweDtmaWxsOiMwMDAwMDA7fSNnZU1lcm1haWRPdXRwdXQtMTY2NzQ0Nzg4NjA0MyAuZXJyb3ItaWNvbntmaWxsOiM1NTIyMjI7fSNnZU1lcm1haWRPdXRwdXQtMTY2NzQ0Nzg4NjA0MyAuZXJyb3ItdGV4dHtmaWxsOiM1NTIyMjI7c3Ryb2tlOiM1NTIyMjI7fSNnZU1lcm1haWRPdXRwdXQtMTY2NzQ0Nzg4NjA0MyAuZWRnZS10aGlja25lc3Mtbm9ybWFse3N0cm9rZS13aWR0aDoycHg7fSNnZU1lcm1haWRPdXRwdXQtMTY2NzQ0Nzg4NjA0MyAuZWRnZS10aGlja25lc3MtdGhpY2t7c3Ryb2tlLXdpZHRoOjMuNXB4O30jZ2VNZXJtYWlkT3V0cHV0LTE2Njc0NDc4ODYwNDMgLmVkZ2UtcGF0dGVybi1zb2xpZHtzdHJva2UtZGFzaGFycmF5OjA7fSNnZU1lcm1haWRPdXRwdXQtMTY2NzQ0Nzg4NjA0MyAuZWRnZS1wYXR0ZXJuLWRhc2hlZHtzdHJva2UtZGFzaGFycmF5OjM7fSNnZU1lcm1haWRPdXRwdXQtMTY2NzQ0Nzg4NjA0MyAuZWRnZS1wYXR0ZXJuLWRvdHRlZHtzdHJva2UtZGFzaGFycmF5OjI7fSNnZU1lcm1haWRPdXRwdXQtMTY2NzQ0Nzg4NjA0MyAubWFya2Vye2ZpbGw6IzAwMDAwMDtzdHJva2U6IzAwMDAwMDt9I2dlTWVybWFpZE91dHB1dC0xNjY3NDQ3ODg2MDQzIC5tYXJrZXIuY3Jvc3N7c3Ryb2tlOiMwMDAwMDA7fSNnZU1lcm1haWRPdXRwdXQtMTY2NzQ0Nzg4NjA0MyBzdmd7Zm9udC1mYW1pbHk6InRyZWJ1Y2hldCBtcyIsdmVyZGFuYSxhcmlhbCxzYW5zLXNlcmlmO2ZvbnQtc2l6ZToxNnB4O30jZ2VNZXJtYWlkT3V0cHV0LTE2Njc0NDc4ODYwNDMgLmFjdG9ye3N0cm9rZTpoc2woNzguMTU3ODk0NzM2OCw1OC40NjE1Mzg0NjE1JSw1NC41MDk4MDM5MjE2JSk7ZmlsbDojY2RlNDk4O30jZ2VNZXJtYWlkT3V0cHV0LTE2Njc0NDc4ODYwNDMgdGV4dC5hY3RvciA+IHRzcGFue2ZpbGw6YmxhY2s7c3Ryb2tlOm5vbmU7fSNnZU1lcm1haWRPdXRwdXQtMTY2NzQ0Nzg4NjA0MyAuYWN0b3ItbGluZXtzdHJva2U6Z3JleTt9I2dlTWVybWFpZE91dHB1dC0xNjY3NDQ3ODg2MDQzIC5tZXNzYWdlTGluZTB7c3Ryb2tlLXdpZHRoOjEuNTtzdHJva2UtZGFzaGFycmF5Om5vbmU7c3Ryb2tlOiMzMzM7fSNnZU1lcm1haWRPdXRwdXQtMTY2NzQ0Nzg4NjA0MyAubWVzc2FnZUxpbmUxe3N0cm9rZS13aWR0aDoxLjU7c3Ryb2tlLWRhc2hhcnJheToyLDI7c3Ryb2tlOiMzMzM7fSNnZU1lcm1haWRPdXRwdXQtMTY2NzQ0Nzg4NjA0MyAjYXJyb3doZWFkIHBhdGh7ZmlsbDojMzMzO3N0cm9rZTojMzMzO30jZ2VNZXJtYWlkT3V0cHV0LTE2Njc0NDc4ODYwNDMgLnNlcXVlbmNlTnVtYmVye2ZpbGw6d2hpdGU7fSNnZU1lcm1haWRPdXRwdXQtMTY2NzQ0Nzg4NjA0MyAjc2VxdWVuY2VudW1iZXJ7ZmlsbDojMzMzO30jZ2VNZXJtYWlkT3V0cHV0LTE2Njc0NDc4ODYwNDMgI2Nyb3NzaGVhZCBwYXRoe2ZpbGw6IzMzMztzdHJva2U6IzMzMzt9I2dlTWVybWFpZE91dHB1dC0xNjY3NDQ3ODg2MDQzIC5tZXNzYWdlVGV4dHtmaWxsOiMzMzM7c3Ryb2tlOiMzMzM7fSNnZU1lcm1haWRPdXRwdXQtMTY2NzQ0Nzg4NjA0MyAubGFiZWxCb3h7c3Ryb2tlOiMzMjY5MzI7ZmlsbDojY2RlNDk4O30jZ2VNZXJtYWlkT3V0cHV0LTE2Njc0NDc4ODYwNDMgLmxhYmVsVGV4dCwjZ2VNZXJtYWlkT3V0cHV0LTE2Njc0NDc4ODYwNDMgLmxhYmVsVGV4dCA+IHRzcGFue2ZpbGw6YmxhY2s7c3Ryb2tlOm5vbmU7fSNnZU1lcm1haWRPdXRwdXQtMTY2NzQ0Nzg4NjA0MyAubG9vcFRleHQsI2dlTWVybWFpZE91dHB1dC0xNjY3NDQ3ODg2MDQzIC5sb29wVGV4dCA+IHRzcGFue2ZpbGw6YmxhY2s7c3Ryb2tlOm5vbmU7fSNnZU1lcm1haWRPdXRwdXQtMTY2NzQ0Nzg4NjA0MyAubG9vcExpbmV7c3Ryb2tlLXdpZHRoOjJweDtzdHJva2UtZGFzaGFycmF5OjIsMjtzdHJva2U6IzMyNjkzMjtmaWxsOiMzMjY5MzI7fSNnZU1lcm1haWRPdXRwdXQtMTY2NzQ0Nzg4NjA0MyAubm90ZXtzdHJva2U6IzZlYWE0OTtmaWxsOiNmZmY1YWQ7fSNnZU1lcm1haWRPdXRwdXQtMTY2NzQ0Nzg4NjA0MyAubm90ZVRleHQsI2dlTWVybWFpZE91dHB1dC0xNjY3NDQ3ODg2MDQzIC5ub3RlVGV4dCA+IHRzcGFue2ZpbGw6YmxhY2s7c3Ryb2tlOm5vbmU7fSNnZU1lcm1haWRPdXRwdXQtMTY2NzQ0Nzg4NjA0MyAuYWN0aXZhdGlvbjB7ZmlsbDojZjRmNGY0O3N0cm9rZTojNjY2O30jZ2VNZXJtYWlkT3V0cHV0LTE2Njc0NDc4ODYwNDMgLmFjdGl2YXRpb24xe2ZpbGw6I2Y0ZjRmNDtzdHJva2U6IzY2Njt9I2dlTWVybWFpZE91dHB1dC0xNjY3NDQ3ODg2MDQzIC5hY3RpdmF0aW9uMntmaWxsOiNmNGY0ZjQ7c3Ryb2tlOiM2NjY7fSNnZU1lcm1haWRPdXRwdXQtMTY2NzQ0Nzg4NjA0Mzpyb290ey0tbWVybWFpZC1mb250LWZhbWlseToidHJlYnVjaGV0IG1zIix2ZXJkYW5hLGFyaWFsLHNhbnMtc2VyaWY7fTwvc3R5bGU+PGc+PC9nPjxnPjxsaW5lIGlkPSJhY3RvcjMiIHgxPSI3NSIgeTE9IjUiIHgyPSI3NSIgeTI9IjI5NCIgY2xhc3M9ImFjdG9yLWxpbmUiIHN0cm9rZS13aWR0aD0iMC41cHgiIHN0cm9rZT0iIzk5OSI+PC9saW5lPjxyZWN0IHg9IjAiIHk9IjAiIGZpbGw9IiNlYWVhZWEiIHN0cm9rZT0iIzY2NiIgd2lkdGg9IjE1MCIgaGVpZ2h0PSI2NSIgcng9IjMiIHJ5PSIzIiBjbGFzcz0iYWN0b3IiPjwvcmVjdD48dGV4dCB4PSI3NSIgeT0iMzIuNSIgZG9taW5hbnQtYmFzZWxpbmU9ImNlbnRyYWwiIGFsaWdubWVudC1iYXNlbGluZT0iY2VudHJhbCIgY2xhc3M9ImFjdG9yIiBzdHlsZT0idGV4dC1hbmNob3I6IG1pZGRsZTsgZm9udC1zaXplOiAxNHB4OyBmb250LXdlaWdodDogNDAwOyBmb250LWZhbWlseTogT3Blbi1TYW5zLCAmcXVvdDtzYW5zLXNlcmlmJnF1b3Q7OyI+PHRzcGFuIHg9Ijc1IiBkeT0iMCI+bXlHb3YgQ3VzdG9tZXI8L3RzcGFuPjwvdGV4dD48L2c+PGc+PGxpbmUgaWQ9ImFjdG9yNCIgeDE9IjQyNSIgeTE9IjUiIHgyPSI0MjUiIHkyPSIyOTQiIGNsYXNzPSJhY3Rvci1saW5lIiBzdHJva2Utd2lkdGg9IjAuNXB4IiBzdHJva2U9IiM5OTkiPjwvbGluZT48cmVjdCB4PSIzNTAiIHk9IjAiIGZpbGw9IiNlYWVhZWEiIHN0cm9rZT0iIzY2NiIgd2lkdGg9IjE1MCIgaGVpZ2h0PSI2NSIgcng9IjMiIHJ5PSIzIiBjbGFzcz0iYWN0b3IiPjwvcmVjdD48dGV4dCB4PSI0MjUiIHk9IjMyLjUiIGRvbWluYW50LWJhc2VsaW5lPSJjZW50cmFsIiBhbGlnbm1lbnQtYmFzZWxpbmU9ImNlbnRyYWwiIGNsYXNzPSJhY3RvciIgc3R5bGU9InRleHQtYW5jaG9yOiBtaWRkbGU7IGZvbnQtc2l6ZTogMTRweDsgZm9udC13ZWlnaHQ6IDQwMDsgZm9udC1mYW1pbHk6IE9wZW4tU2FucywgJnF1b3Q7c2Fucy1zZXJpZiZxdW90OzsiPjx0c3BhbiB4PSI0MjUiIGR5PSIwIj5teUdvdjwvdHNwYW4+PC90ZXh0PjwvZz48Zz48bGluZSBpZD0iYWN0b3I1IiB4MT0iNzA3IiB5MT0iNSIgeDI9IjcwNyIgeTI9IjI5NCIgY2xhc3M9ImFjdG9yLWxpbmUiIHN0cm9rZS13aWR0aD0iMC41cHgiIHN0cm9rZT0iIzk5OSI+PC9saW5lPjxyZWN0IHg9IjYzMiIgeT0iMCIgZmlsbD0iI2VhZWFlYSIgc3Ryb2tlPSIjNjY2IiB3aWR0aD0iMTUwIiBoZWlnaHQ9IjY1IiByeD0iMyIgcnk9IjMiIGNsYXNzPSJhY3RvciI+PC9yZWN0Pjx0ZXh0IHg9IjcwNyIgeT0iMzIuNSIgZG9taW5hbnQtYmFzZWxpbmU9ImNlbnRyYWwiIGFsaWdubWVudC1iYXNlbGluZT0iY2VudHJhbCIgY2xhc3M9ImFjdG9yIiBzdHlsZT0idGV4dC1hbmNob3I6IG1pZGRsZTsgZm9udC1zaXplOiAxNHB4OyBmb250LXdlaWdodDogNDAwOyBmb250LWZhbWlseTogT3Blbi1TYW5zLCAmcXVvdDtzYW5zLXNlcmlmJnF1b3Q7OyI+PHRzcGFuIHg9IjcwNyIgZHk9IjAiPm15R292IEVTQjwvdHNwYW4+PC90ZXh0PjwvZz48Zz48bGluZSBpZD0iYWN0b3I2IiB4MT0iOTg5IiB5MT0iNSIgeDI9Ijk4OSIgeTI9IjI5NCIgY2xhc3M9ImFjdG9yLWxpbmUiIHN0cm9rZS13aWR0aD0iMC41cHgiIHN0cm9rZT0iIzk5OSI+PC9saW5lPjxyZWN0IHg9IjkxNCIgeT0iMCIgZmlsbD0iI2VhZWFlYSIgc3Ryb2tlPSIjNjY2IiB3aWR0aD0iMTUwIiBoZWlnaHQ9IjY1IiByeD0iMyIgcnk9IjMiIGNsYXNzPSJhY3RvciI+PC9yZWN0Pjx0ZXh0IHg9Ijk4OSIgeT0iMzIuNSIgZG9taW5hbnQtYmFzZWxpbmU9ImNlbnRyYWwiIGFsaWdubWVudC1iYXNlbGluZT0iY2VudHJhbCIgY2xhc3M9ImFjdG9yIiBzdHlsZT0idGV4dC1hbmNob3I6IG1pZGRsZTsgZm9udC1zaXplOiAxNHB4OyBmb250LXdlaWdodDogNDAwOyBmb250LWZhbWlseTogT3Blbi1TYW5zLCAmcXVvdDtzYW5zLXNlcmlmJnF1b3Q7OyI+PHRzcGFuIHg9Ijk4OSIgZHk9IjAiPk1lbWJlciBTZXJ2aWNlPC90c3Bhbj48L3RleHQ+PC9nPjxkZWZzPjxtYXJrZXIgaWQ9ImFycm93aGVhZCIgcmVmWD0iOSIgcmVmWT0iNSIgbWFya2VyVW5pdHM9InVzZXJTcGFjZU9uVXNlIiBtYXJrZXJXaWR0aD0iMTIiIG1hcmtlckhlaWdodD0iMTIiIG9yaWVudD0iYXV0byI+PHBhdGggZD0iTSAwIDAgTCAxMCA1IEwgMCAxMCB6Ij48L3BhdGg+PC9tYXJrZXI+PC9kZWZzPjxkZWZzPjxtYXJrZXIgaWQ9ImNyb3NzaGVhZCIgbWFya2VyV2lkdGg9IjE1IiBtYXJrZXJIZWlnaHQ9IjgiIG9yaWVudD0iYXV0byIgcmVmWD0iMTYiIHJlZlk9IjQiPjxwYXRoIGZpbGw9ImJsYWNrIiBzdHJva2U9IiMwMDAwMDAiIHN0cm9rZS13aWR0aD0iMXB4IiBkPSJNIDksMiBWIDYgTDE2LDQgWiIgc3R5bGU9InN0cm9rZS1kYXNoYXJyYXk6IDAsIDA7Ij48L3BhdGg+PHBhdGggZmlsbD0ibm9uZSIgc3Ryb2tlPSIjMDAwMDAwIiBzdHJva2Utd2lkdGg9IjFweCIgZD0iTSAwLDEgTCA2LDcgTSA2LDEgTCAwLDciIHN0eWxlPSJzdHJva2UtZGFzaGFycmF5OiAwLCAwOyI+PC9wYXRoPjwvbWFya2VyPjwvZGVmcz48ZGVmcz48bWFya2VyIGlkPSJmaWxsZWQtaGVhZCIgcmVmWD0iMTgiIHJlZlk9IjciIG1hcmtlcldpZHRoPSIyMCIgbWFya2VySGVpZ2h0PSIyOCIgb3JpZW50PSJhdXRvIj48cGF0aCBkPSJNIDE4LDcgTDksMTMgTDE0LDcgTDksMSBaIj48L3BhdGg+PC9tYXJrZXI+PC9kZWZzPjxkZWZzPjxtYXJrZXIgaWQ9InNlcXVlbmNlbnVtYmVyIiByZWZYPSIxNSIgcmVmWT0iMTUiIG1hcmtlcldpZHRoPSI2MCIgbWFya2VySGVpZ2h0PSI0MCIgb3JpZW50PSJhdXRvIj48Y2lyY2xlIGN4PSIxNSIgY3k9IjE1IiByPSI2Ij48L2NpcmNsZT48L21hcmtlcj48L2RlZnM+PHRleHQgeD0iMjUwIiB5PSI4MCIgdGV4dC1hbmNob3I9Im1pZGRsZSIgZG9taW5hbnQtYmFzZWxpbmU9Im1pZGRsZSIgYWxpZ25tZW50LWJhc2VsaW5lPSJtaWRkbGUiIGNsYXNzPSJtZXNzYWdlVGV4dCIgZHk9IjFlbSIgc3R5bGU9ImZvbnQtZmFtaWx5OiAmcXVvdDt0cmVidWNoZXQgbXMmcXVvdDssIHZlcmRhbmEsIGFyaWFsOyBmb250LXNpemU6IDE2cHg7IGZvbnQtd2VpZ2h0OiA0MDA7Ij5Jbml0aWF0ZSBDdXN0b21lciBEZXRhaWxzIGNoYW5nZSBFdmVudDwvdGV4dD48bGluZSB4MT0iNzUiIHkxPSIxMTMiIHgyPSI0MjUiIHkyPSIxMTMiIGNsYXNzPSJtZXNzYWdlTGluZTAiIHN0cm9rZS13aWR0aD0iMiIgc3Ryb2tlPSJub25lIiBtYXJrZXItZW5kPSJ1cmwoI2Fycm93aGVhZCkiIG1hcmtlci1zdGFydD0idXJsKCNzZXF1ZW5jZW51bWJlcikiIHN0eWxlPSJmaWxsOiBub25lOyI+PC9saW5lPjx0ZXh0IHg9Ijc1IiB5PSIxMTciIGZvbnQtZmFtaWx5PSJzYW5zLXNlcmlmIiBmb250LXNpemU9IjEycHgiIHRleHQtYW5jaG9yPSJtaWRkbGUiIHRleHRMZW5ndGg9IjE2cHgiIGNsYXNzPSJzZXF1ZW5jZU51bWJlciI+MTwvdGV4dD48dGV4dCB4PSI1NjYiIHk9IjEyOCIgdGV4dC1hbmNob3I9Im1pZGRsZSIgZG9taW5hbnQtYmFzZWxpbmU9Im1pZGRsZSIgYWxpZ25tZW50LWJhc2VsaW5lPSJtaWRkbGUiIGNsYXNzPSJtZXNzYWdlVGV4dCIgZHk9IjFlbSIgc3R5bGU9ImZvbnQtZmFtaWx5OiAmcXVvdDt0cmVidWNoZXQgbXMmcXVvdDssIHZlcmRhbmEsIGFyaWFsOyBmb250LXNpemU6IDE2cHg7IGZvbnQtd2VpZ2h0OiA0MDA7Ij5ub3RpZnlDdXN0b21lckRldGFpbHNDaGFuZ2U8L3RleHQ+PGxpbmUgeDE9IjQyNSIgeTE9IjE2MSIgeDI9IjcwNyIgeTI9IjE2MSIgY2xhc3M9Im1lc3NhZ2VMaW5lMCIgc3Ryb2tlLXdpZHRoPSIyIiBzdHJva2U9Im5vbmUiIG1hcmtlci1lbmQ9InVybCgjYXJyb3doZWFkKSIgbWFya2VyLXN0YXJ0PSJ1cmwoI3NlcXVlbmNlbnVtYmVyKSIgc3R5bGU9ImZpbGw6IG5vbmU7Ij48L2xpbmU+PHRleHQgeD0iNDI1IiB5PSIxNjUiIGZvbnQtZmFtaWx5PSJzYW5zLXNlcmlmIiBmb250LXNpemU9IjEycHgiIHRleHQtYW5jaG9yPSJtaWRkbGUiIHRleHRMZW5ndGg9IjE2cHgiIGNsYXNzPSJzZXF1ZW5jZU51bWJlciI+MjwvdGV4dD48dGV4dCB4PSI4NDgiIHk9IjE3NiIgdGV4dC1hbmNob3I9Im1pZGRsZSIgZG9taW5hbnQtYmFzZWxpbmU9Im1pZGRsZSIgYWxpZ25tZW50LWJhc2VsaW5lPSJtaWRkbGUiIGNsYXNzPSJtZXNzYWdlVGV4dCIgZHk9IjFlbSIgc3R5bGU9ImZvbnQtZmFtaWx5OiAmcXVvdDt0cmVidWNoZXQgbXMmcXVvdDssIHZlcmRhbmEsIGFyaWFsOyBmb250LXNpemU6IDE2cHg7IGZvbnQtd2VpZ2h0OiA0MDA7Ij5ub3RpZnlDdXN0b21lckRldGFpbHNDaGFuZ2U8L3RleHQ+PGxpbmUgeDE9IjcwNyIgeTE9IjIwOSIgeDI9Ijk4OSIgeTI9IjIwOSIgY2xhc3M9Im1lc3NhZ2VMaW5lMCIgc3Ryb2tlLXdpZHRoPSIyIiBzdHJva2U9Im5vbmUiIG1hcmtlci1lbmQ9InVybCgjYXJyb3doZWFkKSIgbWFya2VyLXN0YXJ0PSJ1cmwoI3NlcXVlbmNlbnVtYmVyKSIgc3R5bGU9ImZpbGw6IG5vbmU7Ij48L2xpbmU+PHRleHQgeD0iNzA3IiB5PSIyMTMiIGZvbnQtZmFtaWx5PSJzYW5zLXNlcmlmIiBmb250LXNpemU9IjEycHgiIHRleHQtYW5jaG9yPSJtaWRkbGUiIHRleHRMZW5ndGg9IjE2cHgiIGNsYXNzPSJzZXF1ZW5jZU51bWJlciI+MzwvdGV4dD48Zz48cmVjdCB4PSIwIiB5PSIyMjkiIGZpbGw9IiNlYWVhZWEiIHN0cm9rZT0iIzY2NiIgd2lkdGg9IjE1MCIgaGVpZ2h0PSI2NSIgcng9IjMiIHJ5PSIzIiBjbGFzcz0iYWN0b3IiPjwvcmVjdD48dGV4dCB4PSI3NSIgeT0iMjYxLjUiIGRvbWluYW50LWJhc2VsaW5lPSJjZW50cmFsIiBhbGlnbm1lbnQtYmFzZWxpbmU9ImNlbnRyYWwiIGNsYXNzPSJhY3RvciIgc3R5bGU9InRleHQtYW5jaG9yOiBtaWRkbGU7IGZvbnQtc2l6ZTogMTRweDsgZm9udC13ZWlnaHQ6IDQwMDsgZm9udC1mYW1pbHk6IE9wZW4tU2FucywgJnF1b3Q7c2Fucy1zZXJpZiZxdW90OzsiPjx0c3BhbiB4PSI3NSIgZHk9IjAiPm15R292IEN1c3RvbWVyPC90c3Bhbj48L3RleHQ+PC9nPjxnPjxyZWN0IHg9IjM1MCIgeT0iMjI5IiBmaWxsPSIjZWFlYWVhIiBzdHJva2U9IiM2NjYiIHdpZHRoPSIxNTAiIGhlaWdodD0iNjUiIHJ4PSIzIiByeT0iMyIgY2xhc3M9ImFjdG9yIj48L3JlY3Q+PHRleHQgeD0iNDI1IiB5PSIyNjEuNSIgZG9taW5hbnQtYmFzZWxpbmU9ImNlbnRyYWwiIGFsaWdubWVudC1iYXNlbGluZT0iY2VudHJhbCIgY2xhc3M9ImFjdG9yIiBzdHlsZT0idGV4dC1hbmNob3I6IG1pZGRsZTsgZm9udC1zaXplOiAxNHB4OyBmb250LXdlaWdodDogNDAwOyBmb250LWZhbWlseTogT3Blbi1TYW5zLCAmcXVvdDtzYW5zLXNlcmlmJnF1b3Q7OyI+PHRzcGFuIHg9IjQyNSIgZHk9IjAiPm15R292PC90c3Bhbj48L3RleHQ+PC9nPjxnPjxyZWN0IHg9IjYzMiIgeT0iMjI5IiBmaWxsPSIjZWFlYWVhIiBzdHJva2U9IiM2NjYiIHdpZHRoPSIxNTAiIGhlaWdodD0iNjUiIHJ4PSIzIiByeT0iMyIgY2xhc3M9ImFjdG9yIj48L3JlY3Q+PHRleHQgeD0iNzA3IiB5PSIyNjEuNSIgZG9taW5hbnQtYmFzZWxpbmU9ImNlbnRyYWwiIGFsaWdubWVudC1iYXNlbGluZT0iY2VudHJhbCIgY2xhc3M9ImFjdG9yIiBzdHlsZT0idGV4dC1hbmNob3I6IG1pZGRsZTsgZm9udC1zaXplOiAxNHB4OyBmb250LXdlaWdodDogNDAwOyBmb250LWZhbWlseTogT3Blbi1TYW5zLCAmcXVvdDtzYW5zLXNlcmlmJnF1b3Q7OyI+PHRzcGFuIHg9IjcwNyIgZHk9IjAiPm15R292IEVTQjwvdHNwYW4+PC90ZXh0PjwvZz48Zz48cmVjdCB4PSI5MTQiIHk9IjIyOSIgZmlsbD0iI2VhZWFlYSIgc3Ryb2tlPSIjNjY2IiB3aWR0aD0iMTUwIiBoZWlnaHQ9IjY1IiByeD0iMyIgcnk9IjMiIGNsYXNzPSJhY3RvciI+PC9yZWN0Pjx0ZXh0IHg9Ijk4OSIgeT0iMjYxLjUiIGRvbWluYW50LWJhc2VsaW5lPSJjZW50cmFsIiBhbGlnbm1lbnQtYmFzZWxpbmU9ImNlbnRyYWwiIGNsYXNzPSJhY3RvciIgc3R5bGU9InRleHQtYW5jaG9yOiBtaWRkbGU7IGZvbnQtc2l6ZTogMTRweDsgZm9udC13ZWlnaHQ6IDQwMDsgZm9udC1mYW1pbHk6IE9wZW4tU2FucywgJnF1b3Q7c2Fucy1zZXJpZiZxdW90OzsiPjx0c3BhbiB4PSI5ODkiIGR5PSIwIj5NZW1iZXIgU2VydmljZTwvdHNwYW4+PC90ZXh0PjwvZz48L3N2Zz4=;" parent="c5cotqBrzGGHtI7Cecja-1" vertex="1">
                        <mxGeometry x="40" y="-1080" width="680" height="220" as="geometry"/>
                    </mxCell>
                </UserObject>
                <mxCell id="c5cotqBrzGGHtI7Cecja-3" value="Components" parent="c5cotqBrzGGHtI7Cecja-0"/>
            </root>
        </mxGraphModel>
    </diagram>
    <diagram name="03-pcdc-logical" id="LilIcsV0b8Ox9MI6vs7q">
        <mxGraphModel grid="1" page="1" gridSize="10" guides="1" tooltips="1" connect="1" arrows="1" fold="1" pageScale="1" pageWidth="827" pageHeight="1169" background="none" math="0" shadow="0">
            <root>
                <mxCell id="1kE_fc55fKXw93cZOtSw-0"/>
                <mxCell id="1kE_fc55fKXw93cZOtSw-1" style="" parent="1kE_fc55fKXw93cZOtSw-0"/>
                <mxCell id="yzFGexkv6N-Lm-rD8mmw-0" value="&lt;span style=&quot;color: rgb(0, 0, 0); font-size: 20px; font-weight: 700;&quot;&gt;Publish Customer Details Change&lt;/span&gt;" style="rounded=1;whiteSpace=wrap;html=1;fillColor=#FFFFFF;verticalAlign=top;arcSize=10;strokeColor=none;strokeWidth=0;" vertex="1" parent="1kE_fc55fKXw93cZOtSw-1">
                    <mxGeometry x="40" y="-1120" width="560" height="140" as="geometry"/>
                </mxCell>
                <mxCell id="1kE_fc55fKXw93cZOtSw-3" value="Components" parent="1kE_fc55fKXw93cZOtSw-0"/>
                <mxCell id="1kE_fc55fKXw93cZOtSw-4" style="edgeStyle=none;html=1;entryX=0;entryY=0.5;entryDx=0;entryDy=0;fontSize=20;fontColor=#000000;strokeColor=#000000;" parent="1kE_fc55fKXw93cZOtSw-3" source="1kE_fc55fKXw93cZOtSw-5" target="1kE_fc55fKXw93cZOtSw-7" edge="1">
                    <mxGeometry relative="1" as="geometry"/>
                </mxCell>
                <mxCell id="1kE_fc55fKXw93cZOtSw-5" value="Member Service" style="rounded=1;whiteSpace=wrap;html=1;labelBackgroundColor=none;fontSize=14;fontColor=#000000;strokeColor=#000000;fillColor=#E6E6E6;" parent="1kE_fc55fKXw93cZOtSw-3" vertex="1">
                    <mxGeometry x="50" y="-1070" width="120" height="60" as="geometry"/>
                </mxCell>
                <mxCell id="1kE_fc55fKXw93cZOtSw-6" style="edgeStyle=none;html=1;fontSize=20;fontColor=#000000;strokeColor=#000000;" parent="1kE_fc55fKXw93cZOtSw-3" source="1kE_fc55fKXw93cZOtSw-7" target="1kE_fc55fKXw93cZOtSw-8" edge="1">
                    <mxGeometry relative="1" as="geometry"/>
                </mxCell>
                <mxCell id="1kE_fc55fKXw93cZOtSw-7" value="myGov ESB" style="rounded=1;whiteSpace=wrap;html=1;labelBackgroundColor=none;fontSize=14;fontColor=#000000;strokeColor=#000000;fillColor=#E6E6E6;" parent="1kE_fc55fKXw93cZOtSw-3" vertex="1">
                    <mxGeometry x="250" y="-1070" width="120" height="60" as="geometry"/>
                </mxCell>
                <mxCell id="1kE_fc55fKXw93cZOtSw-8" value="myGov" style="rounded=1;whiteSpace=wrap;html=1;labelBackgroundColor=none;fontSize=14;fontColor=#000000;strokeColor=#000000;fillColor=#E6E6E6;" parent="1kE_fc55fKXw93cZOtSw-3" vertex="1">
                    <mxGeometry x="460" y="-1070" width="120" height="60" as="geometry"/>
                </mxCell>
            </root>
        </mxGraphModel>
    </diagram>
    <diagram name="02-ucdcs-logical" id="LjVZgymXRmneTjtjXr-x">
        <mxGraphModel grid="1" page="1" gridSize="10" guides="1" tooltips="1" connect="1" arrows="1" fold="1" pageScale="1" pageWidth="827" pageHeight="1169" background="none" math="0" shadow="0">
            <root>
                <mxCell id="xYsnxiXOA6YSqXe0EdBx-0"/>
                <mxCell id="xYsnxiXOA6YSqXe0EdBx-1" style="" parent="xYsnxiXOA6YSqXe0EdBx-0"/>
                <mxCell id="qMUyaACX2Bs8tBmAUUo4-0" value="&lt;span style=&quot;color: rgb(0, 0, 0); font-size: 20px; font-weight: 700;&quot;&gt;Update Customer Details Change Status&lt;/span&gt;" style="rounded=1;whiteSpace=wrap;html=1;fillColor=#FFFFFF;verticalAlign=top;arcSize=10;strokeColor=none;strokeWidth=0;" vertex="1" parent="xYsnxiXOA6YSqXe0EdBx-1">
                    <mxGeometry x="40" y="-1120" width="560" height="140" as="geometry"/>
                </mxCell>
                <mxCell id="xYsnxiXOA6YSqXe0EdBx-3" value="Components" parent="xYsnxiXOA6YSqXe0EdBx-0"/>
                <mxCell id="xYsnxiXOA6YSqXe0EdBx-4" style="edgeStyle=none;html=1;entryX=0;entryY=0.5;entryDx=0;entryDy=0;fontSize=20;fontColor=#000000;strokeColor=#000000;" parent="xYsnxiXOA6YSqXe0EdBx-3" source="xYsnxiXOA6YSqXe0EdBx-5" target="xYsnxiXOA6YSqXe0EdBx-7" edge="1">
                    <mxGeometry relative="1" as="geometry"/>
                </mxCell>
                <mxCell id="xYsnxiXOA6YSqXe0EdBx-5" value="Member Service" style="rounded=1;whiteSpace=wrap;html=1;labelBackgroundColor=none;fontSize=14;fontColor=#000000;strokeColor=#000000;fillColor=#E6E6E6;" parent="xYsnxiXOA6YSqXe0EdBx-3" vertex="1">
                    <mxGeometry x="60" y="-1070" width="120" height="60" as="geometry"/>
                </mxCell>
                <mxCell id="xYsnxiXOA6YSqXe0EdBx-6" style="edgeStyle=none;html=1;fontSize=20;fontColor=#000000;strokeColor=#000000;" parent="xYsnxiXOA6YSqXe0EdBx-3" source="xYsnxiXOA6YSqXe0EdBx-7" target="xYsnxiXOA6YSqXe0EdBx-8" edge="1">
                    <mxGeometry relative="1" as="geometry"/>
                </mxCell>
                <mxCell id="xYsnxiXOA6YSqXe0EdBx-7" value="myGov ESB" style="rounded=1;whiteSpace=wrap;html=1;labelBackgroundColor=none;fontSize=14;fontColor=#000000;strokeColor=#000000;fillColor=#E6E6E6;" parent="xYsnxiXOA6YSqXe0EdBx-3" vertex="1">
                    <mxGeometry x="260" y="-1070" width="120" height="60" as="geometry"/>
                </mxCell>
                <mxCell id="xYsnxiXOA6YSqXe0EdBx-8" value="myGov" style="rounded=1;whiteSpace=wrap;html=1;labelBackgroundColor=none;fontSize=14;fontColor=#000000;strokeColor=#000000;fillColor=#E6E6E6;" parent="xYsnxiXOA6YSqXe0EdBx-3" vertex="1">
                    <mxGeometry x="470" y="-1070" width="120" height="60" as="geometry"/>
                </mxCell>
            </root>
        </mxGraphModel>
    </diagram>
    <diagram id="n6JUznCpkLYIIa2AfjBv" name="01-ncdc-logical">
        <mxGraphModel grid="1" page="1" gridSize="10" guides="1" tooltips="1" connect="1" arrows="1" fold="1" pageScale="1" pageWidth="827" pageHeight="1169" background="none" math="0" shadow="0">
            <root>
                <mxCell id="0"/>
                <mxCell id="1" style="" parent="0"/>
                <mxCell id="WG3jOC8k7akjwj-gFR0W-11" value="&lt;span style=&quot;color: rgb(0, 0, 0); font-size: 20px; font-weight: 700;&quot;&gt;Notify Customer Details Change&lt;/span&gt;" style="rounded=1;whiteSpace=wrap;html=1;fillColor=#FFFFFF;verticalAlign=top;arcSize=10;strokeColor=none;strokeWidth=0;" vertex="1" parent="1">
                    <mxGeometry x="40" y="-1120" width="560" height="140" as="geometry"/>
                </mxCell>
                <mxCell id="3" value="Components" parent="0"/>
                <mxCell id="10" style="edgeStyle=none;html=1;entryX=0;entryY=0.5;entryDx=0;entryDy=0;fontSize=20;fontColor=#000000;strokeColor=#000000;" parent="3" source="4" target="5" edge="1">
                    <mxGeometry relative="1" as="geometry"/>
                </mxCell>
                <mxCell id="4" value="myGov" style="rounded=1;whiteSpace=wrap;html=1;labelBackgroundColor=none;fontSize=14;fontColor=#000000;strokeColor=#000000;fillColor=#E6E6E6;" parent="3" vertex="1">
                    <mxGeometry x="60" y="-1070" width="120" height="60" as="geometry"/>
                </mxCell>
                <mxCell id="11" style="edgeStyle=none;html=1;fontSize=20;fontColor=#000000;strokeColor=#000000;" parent="3" source="5" target="9" edge="1">
                    <mxGeometry relative="1" as="geometry"/>
                </mxCell>
                <mxCell id="5" value="myGov ESB" style="rounded=1;whiteSpace=wrap;html=1;labelBackgroundColor=none;fontSize=14;fontColor=#000000;strokeColor=#000000;fillColor=#E6E6E6;" parent="3" vertex="1">
                    <mxGeometry x="260" y="-1070" width="120" height="60" as="geometry"/>
                </mxCell>
                <mxCell id="9" value="Member Service" style="rounded=1;whiteSpace=wrap;html=1;labelBackgroundColor=none;fontSize=14;fontColor=#000000;strokeColor=#000000;fillColor=#E6E6E6;" parent="3" vertex="1">
                    <mxGeometry x="470" y="-1070" width="120" height="60" as="geometry"/>
                </mxCell>
            </root>
        </mxGraphModel>
    </diagram>
</mxfile>